P3
# CREATOR: GIMP PNM Filter Version 1.1
100 36
255
255
255
255
255
255
255
255
255
255
255
255
255
255
255
255
255
255
255
255
255
255
255
255
255
255
255
255
255
255
255
255
255
255
255
255
255
255
255
255
255
255
255
255
255
255
255
255
255
255
255
255
255
255
255
255
255
255
255
255
255
255
255
255
255
255
255
255
255
255
255
255
255
255
255
255
255
255
255
255
255
255
255
255
255
255
255
255
255
255
255
255
255
255
255
255
255
255
255
255
255
255
255
255
255
255
255
255
255
255
255
255
255
255
255
255
255
255
255
255
255
255
255
255
255
255
255
255
255
255
255
255
255
255
255
255
255
255
255
255
255
255
255
255
255
255
255
255
255
255
255
255
255
255
255
255
255
255
255
255
255
255
255
255
255
255
255
255
255
255
255
255
255
255
255
255
255
255
255
255
255
255
255
255
255
255
255
255
255
255
255
255
255
255
255
255
255
255
255
255
255
255
255
255
255
255
255
255
255
255
255
255
255
255
255
255
255
255
255
255
255
255
255
255
255
255
255
255
255
255
255
255
255
255
255
255
255
255
255
255
255
255
255
255
255
255
255
255
255
255
255
255
255
255
255
255
255
255
255
255
255
255
255
255
255
255
255
255
255
255
255
255
255
255
255
255
255
255
255
255
255
255
255
255
255
255
255
255
255
255
255
255
255
255
255
255
255
255
255
255
255
255
255
255
255
255
255
255
255
255
255
255
255
255
255
255
255
255
255
255
255
255
255
255
255
255
255
255
255
255
255
255
255
255
255
255
255
255
255
255
255
255
255
255
255
255
255
255
255
255
255
255
255
255
255
255
255
255
255
255
255
255
255
255
255
255
255
255
255
255
255
255
255
255
255
255
255
255
255
255
255
255
255
255
255
255
255
255
255
255
255
255
255
255
255
255
255
255
255
255
255
255
255
255
255
255
255
255
255
255
255
255
255
255
255
255
255
255
255
255
255
255
255
255
255
255
255
255
255
255
255
255
255
255
255
255
255
255
255
255
255
255
255
255
255
255
255
255
255
255
255
255
255
255
255
255
255
255
255
255
255
255
255
255
255
255
255
255
255
255
255
255
255
255
255
255
255
255
255
255
255
255
255
255
255
255
255
255
255
255
255
255
255
255
255
255
255
255
255
255
255
255
255
255
255
255
255
255
255
255
255
255
255
255
255
255
255
255
255
255
255
255
255
255
255
255
255
255
255
255
255
255
255
255
255
255
255
255
255
255
255
255
255
255
255
255
255
255
255
255
255
255
255
255
255
255
255
255
255
255
255
255
255
255
255
255
255
255
255
255
255
255
255
255
255
255
255
255
255
255
255
255
255
255
255
255
255
255
255
255
255
255
255
255
255
255
255
255
255
255
255
255
255
255
255
255
255
255
255
255
255
255
255
255
255
255
255
255
255
255
255
255
255
255
255
255
255
255
255
255
255
255
255
255
255
255
255
255
255
255
255
255
255
255
255
255
255
255
255
255
255
255
255
255
255
255
255
255
255
255
255
255
255
255
255
255
255
255
255
255
255
255
255
255
255
255
255
255
255
255
255
255
255
255
255
255
255
255
255
255
255
255
255
255
255
255
255
255
255
255
255
255
255
255
255
255
255
255
255
255
255
255
255
255
255
255
255
255
255
255
255
255
255
255
255
255
255
255
255
255
255
255
255
255
255
255
255
255
255
255
255
255
255
255
255
255
255
255
255
255
255
255
255
255
255
255
255
255
255
255
255
255
255
255
255
255
255
255
255
255
255
255
255
255
255
255
255
255
255
255
255
255
255
255
255
255
255
255
255
255
255
255
255
255
255
255
255
255
255
255
255
255
255
255
255
255
255
255
255
255
255
255
255
255
255
255
255
255
255
255
255
255
255
255
255
255
255
255
255
255
255
255
255
255
255
255
255
255
255
255
255
255
255
255
255
255
255
255
255
255
255
255
255
255
255
255
255
255
255
255
255
255
255
255
255
255
255
255
255
255
255
255
255
255
255
255
255
255
255
255
255
255
255
255
255
255
255
255
255
255
255
255
255
255
255
255
255
255
255
255
255
255
255
255
255
255
255
255
255
255
255
255
255
255
255
255
255
255
255
255
255
255
255
255
255
255
255
255
255
255
255
255
255
255
255
255
255
255
255
255
255
255
255
255
255
255
255
255
255
255
255
255
255
255
255
255
255
255
255
255
255
255
255
255
255
255
255
255
255
255
255
255
255
255
255
255
255
255
255
255
255
255
255
255
255
255
255
255
255
255
255
255
255
255
255
255
255
255
255
255
255
255
255
255
255
255
255
255
255
255
255
255
255
255
255
255
255
255
255
255
255
255
255
255
255
255
255
255
255
255
255
255
255
255
255
255
255
255
255
255
255
255
255
255
255
255
255
255
255
255
255
255
255
255
255
255
255
255
255
255
255
255
255
255
255
255
255
255
255
255
255
255
255
255
255
255
255
255
255
255
255
253
253
253
250
249
249
237
236
234
233
232
231
232
232
230
231
232
231
208
204
200
201
199
192
224
223
221
208
205
205
188
182
177
194
191
184
212
210
207
179
171
166
176
170
162
193
189
184
196
191
188
181
176
171
182
177
172
195
192
187
185
178
174
173
158
143
180
176
168
190
188
185
204
201
201
255
255
255
255
255
255
255
255
255
255
255
255
255
255
255
255
255
255
255
255
255
255
255
255
255
255
255
255
255
255
255
255
255
255
255
255
255
255
255
255
255
255
255
255
255
255
255
255
255
255
255
255
255
255
255
255
255
255
255
255
255
255
255
255
255
255
255
255
255
255
255
255
255
255
255
255
255
255
255
255
255
255
255
255
255
255
255
255
255
255
255
255
255
255
255
255
255
255
255
255
255
255
255
255
255
255
255
255
255
255
255
255
255
255
255
255
255
255
255
255
255
255
255
255
255
255
255
255
255
255
255
255
255
255
255
255
255
255
255
255
255
255
255
255
255
255
255
255
255
255
255
255
255
255
255
255
241
240
239
236
235
234
235
234
231
220
217
215
219
217
214
229
227
224
218
215
210
210
206
201
206
205
201
218
215
211
202
198
193
204
196
184
189
186
180
204
200
195
185
177
163
191
179
160
196
192
184
195
190
183
177
163
139
167
155
134
194
187
178
176
166
154
164
150
125
184
171
150
196
190
180
193
176
151
149
131
103
195
181
156
197
188
177
177
155
123
151
132
97
177
165
145
169
157
136
159
132
93
125
109
85
145
132
111
136
124
109
136
113
75
182
164
133
194
188
180
174
140
100
129
104
59
193
180
161
192
181
166
100
79
53
166
137
85
189
182
174
184
179
172
224
223
223
255
255
255
255
255
255
255
255
255
255
255
255
255
255
255
255
255
255
255
255
255
255
255
255
255
255
255
255
255
255
255
255
255
255
255
255
255
255
255
255
255
255
255
255
255
255
255
255
255
255
255
255
255
255
255
255
255
255
255
255
255
255
255
255
255
255
255
255
255
255
255
255
255
255
255
255
255
255
255
255
255
255
255
255
255
255
255
255
255
255
255
255
255
255
255
255
252
252
252
252
251
250
252
250
248
251
249
246
251
249
245
251
248
243
251
247
241
249
246
238
241
235
222
229
219
200
224
209
181
221
202
167
223
201
157
221
197
143
226
197
132
230
215
180
255
255
255
255
255
255
228
225
221
197
190
181
196
191
182
199
192
182
210
181
127
197
168
114
198
189
174
209
199
184
174
146
92
212
184
127
195
190
180
223
203
163
108
86
45
218
188
129
200
193
185
192
166
117
82
63
33
200
180
144
197
190
182
128
105
72
110
86
52
194
186
173
206
197
179
104
84
61
158
133
90
200
193
184
215
198
168
129
106
78
204
182
141
199
189
179
204
183
156
158
135
102
100
85
59
92
76
36
81
61
34
74
54
30
78
58
30
70
50
28
217
187
105
190
179
168
192
185
177
188
185
178
186
179
170
191
184
176
190
180
168
186
180
168
186
181
176
187
180
173
189
181
172
180
175
172
254
254
254
255
255
255
255
255
255
255
255
255
255
255
255
255
255
255
255
255
255
255
255
255
255
255
255
255
255
255
255
255
255
255
255
255
255
255
255
255
255
255
255
255
255
255
255
255
255
255
255
255
255
255
255
255
255
255
255
255
255
255
255
255
255
255
255
255
255
251
251
251
239
238
236
226
220
212
220
209
194
220
204
179
221
201
166
223
198
151
224
197
140
230
204
137
242
218
145
250
227
152
253
233
154
253
234
152
253
234
153
253
236
154
253
238
153
253
236
153
254
238
154
255
237
153
255
235
153
255
238
156
255
235
151
255
234
145
255
240
154
201
181
122
255
255
255
255
255
255
215
210
205
202
195
181
217
197
159
197
191
183
217
192
142
203
181
141
194
187
175
197
192
182
197
186
163
195
185
164
201
195
184
203
195
182
197
190
176
205
196
182
199
194
183
196
188
176
193
184
169
199
192
181
199
189
173
198
187
172
193
184
166
196
189
180
198
191
182
195
188
177
195
188
177
195
188
177
188
183
172
157
140
116
166
153
132
189
182
171
191
185
176
141
138
137
213
190
119
206
181
120
17
16
11
19
18
14
21
18
13
53
44
22
255
233
143
207
193
164
193
186
177
195
187
177
195
187
178
174
159
139
159
138
106
161
144
115
173
167
153
156
145
142
149
141
125
185
179
171
234
232
231
255
255
255
255
255
255
255
255
255
255
255
255
255
255
255
255
255
255
255
255
255
255
255
255
255
255
255
255
255
255
255
255
255
255
255
255
255
255
255
255
255
255
255
255
255
255
255
255
255
255
255
233
224
211
233
200
133
224
188
121
236
203
130
239
206
133
241
210
135
249
222
143
254
230
147
234
208
134
194
167
104
174
152
93
231
207
131
255
238
153
255
239
153
255
237
152
255
232
147
255
236
150
255
238
153
255
241
155
255
239
155
255
240
156
255
237
152
255
237
152
255
239
157
255
237
153
255
236
150
255
236
151
255
236
148
255
241
153
191
171
111
226
223
220
206
203
199
213
195
161
204
195
182
198
181
149
201
194
182
200
193
182
200
193
181
203
195
183
209
200
184
205
198
185
200
193
182
200
194
182
202
195
183
203
197
185
206
198
183
209
187
145
222
198
147
228
205
151
227
210
167
221
205
167
221
201
151
234
211
148
255
235
160
253
235
161
195
185
168
198
184
164
200
180
144
178
174
163
134
136
133
146
146
141
179
173
159
228
206
157
176
151
118
168
142
91
130
114
78
21
19
18
10
10
9
7
6
7
103
85
43
102
92
68
179
157
113
189
183
177
191
184
175
190
183
175
144
143
143
114
124
131
114
126
136
151
147
140
185
179
172
141
131
121
186
178
169
178
173
170
255
255
255
255
255
255
255
255
255
255
255
255
255
255
255
255
255
255
255
255
255
255
255
255
255
255
255
255
255
255
255
255
255
255
255
255
255
255
255
255
255
255
255
255
255
255
255
255
255
255
255
200
181
153
231
190
112
242
205
126
249
215
136
253
226
147
254
229
147
255
233
149
255
243
153
59
41
11
59
47
26
62
48
27
200
172
112
255
229
144
255
236
151
255
238
154
255
237
152
255
233
148
255
237
151
255
231
148
255
235
151
255
236
149
255
235
151
255
234
149
255
233
147
255
239
154
255
237
151
255
238
153
255
240
156
255
242
158
207
185
118
209
194
158
209
199
182
207
198
185
205
197
183
200
191
176
203
196
183
203
193
177
202
189
169
203
195
179
192
184
170
192
181
163
199
190
175
203
194
181
205
195
179
205
194
175
207
195
173
215
194
135
139
118
80
126
105
69
113
92
61
103
83
54
98
77
47
93
74
45
95
72
41
110
87
48
202
187
157
214
197
159
213
195
161
202
195
183
198
185
163
189
172
143
206
185
152
129
118
95
90
80
66
81
73
55
36
32
29
76
66
41
29
24
20
30
26
17
159
143
90
26
24
20
113
99
63
157
140
105
191
178
155
180
169
157
184
174
158
137
130
125
93
86
71
119
113
102
186
178
168
187
181
175
191
184
175
183
176
170
229
228
228
255
255
255
255
255
255
255
255
255
255
255
255
255
255
255
255
255
255
255
255
255
255
255
255
255
255
255
255
255
255
255
255
255
255
255
255
255
255
255
255
255
255
255
255
255
255
255
255
167
140
96
231
190
112
238
201
126
249
218
141
252
221
142
254
226
145
255
231
149
251
222
129
21
10
1
28
20
12
34
26
13
218
189
121
255
233
147
255
229
144
255
234
148
255
237
153
255
231
146
255
231
145
255
236
150
255
235
150
255
231
146
255
232
146
255
234
148
255
233
145
254
228
144
255
238
154
249
234
153
253
236
152
255
242
157
210
186
114
203
185
142
202
193
177
208
199
182
207
198
183
213
191
152
211
201
184
176
164
129
162
146
89
205
196
181
211
202
189
141
126
102
144
136
118
201
193
181
217
197
160
222
197
143
224
201
152
152
128
99
86
69
47
85
65
41
82
64
41
83
65
41
74
58
39
82
62
40
80
63
40
80
62
39
180
165
140
234
207
141
224
198
134
175
160
139
222
207
173
205
207
201
115
125
137
112
114
104
94
90
86
49
49
44
54
44
28
25
20
17
80
65
39
35
27
17
39
31
21
71
57
39
61
53
38
159
149
133
188
177
160
140
125
108
164
154
140
169
165
161
169
170
168
190
181
171
190
182
170
190
183
174
188
179
170
195
184
173
190
185
182
255
255
255
255
255
255
255
255
255
255
255
255
255
255
255
255
255
255
255
255
255
255
255
255
255
255
255
255
255
255
255
255
255
255
255
255
255
255
255
255
255
255
255
255
255
245
247
248
173
138
81
222
181
106
233
194
116
243
205
128
250
219
141
247
212
131
253
222
139
253
222
139
246
215
136
250
225
143
250
222
138
255
229
144
255
231
146
255
234
149
255
233
147
255
232
147
255
229
144
255
233
149
255
234
149
255
232
145
255
233
148
255
234
148
255
233
147
255
233
145
255
235
150
163
135
70
70
52
31
241
212
134
255
247
168
207
185
111
144
126
95
209
181
137
204
181
143
205
190
169
203
194
179
208
198
182
152
145
126
78
77
69
199
191
175
202
195
184
154
154
148
161
151
135
199
193
182
217
204
170
225
196
137
235
209
145
152
143
131
82
71
52
80
63
40
61
52
41
59
51
38
72
58
39
70
56
39
76
59
40
78
62
40
147
138
122
219
197
153
217
194
148
194
179
152
192
183
171
194
187
176
192
186
176
177
176
174
223
194
133
124
93
59
193
170
110
24
15
11
132
108
63
66
49
28
63
49
30
69
51
29
67
51
20
216
196
141
194
182
160
162
144
123
150
131
107
203
191
178
174
160
145
165
148
121
167
153
127
188
181
173
194
184
173
196
187
174
189
178
170
226
226
226
255
255
255
255
255
255
255
255
255
255
255
255
255
255
255
255
255
255
255
255
255
255
255
255
255
255
255
255
255
255
255
255
255
255
255
255
255
255
255
255
255
255
199
196
188
192
152
86
209
168
95
235
197
121
245
209
131
249
215
135
249
216
136
251
215
133
253
220
137
254
221
138
254
224
141
254
226
141
254
227
142
255
232
147
255
234
148
255
234
148
255
229
145
254
232
146
254
226
142
254
229
145
255
228
142
255
230
144
255
232
145
255
237
151
245
218
135
255
235
149
252
231
149
238
218
141
252
235
153
255
243
161
206
185
114
106
117
120
123
132
134
137
139
136
217
205
177
204
195
180
204
196
180
197
190
177
188
183
173
203
194
179
168
163
150
138
118
90
142
132
114
175
168
152
206
193
170
218
193
145
219
196
148
183
173
158
75
65
51
83
64
40
58
51
38
56
50
40
71
56
40
72
58
40
75
60
41
74
59
40
114
104
88
231
212
160
235
209
144
219
194
140
195
181
159
206
186
150
198
171
125
203
180
141
78
70
54
46
40
34
184
162
93
252
236
152
51
40
29
35
29
21
49
38
25
35
26
17
203
185
110
227
201
128
99
86
67
172
158
127
160
144
123
185
176
162
81
80
85
92
93
88
86
90
88
134
127
114
191
180
170
172
163
150
197
185
172
198
191
186
255
255
255
255
255
255
255
255
255
255
255
255
255
255
255
255
255
255
255
255
255
255
255
255
255
255
255
255
255
255
255
255
255
255
255
255
255
255
255
255
255
255
172
157
136
196
157
87
212
172
101
234
195
118
242
205
128
248
214
136
250
216
134
253
223
141
254
221
138
255
228
141
255
227
140
255
229
143
254
227
142
255
229
144
254
228
144
255
231
147
255
236
150
254
232
147
255
229
146
255
231
145
255
233
146
254
229
144
255
231
147
255
234
149
255
237
152
255
234
149
255
234
150
255
238
152
255
237
154
255
238
155
217
195
123
184
167
142
210
192
167
213
196
169
194
188
176
207
194
171
203
192
172
201
193
181
200
192
179
197
191
180
160
158
150
124
128
125
137
136
127
189
181
169
203
193
175
249
219
148
239
212
147
200
188
167
75
69
60
67
54
38
76
58
38
68
53
35
64
51
35
62
49
33
64
51
33
62
49
33
76
67
51
206
193
167
222
197
147
227
202
146
194
187
172
206
193
168
210
213
212
120
122
121
144
144
130
123
85
54
111
89
57
236
218
141
46
41
31
11
11
10
9
10
9
8
7
5
176
156
96
154
132
81
188
177
157
195
186
172
203
192
177
195
186
174
190
186
180
162
165
166
158
157
150
195
186
175
199
186
173
195
183
172
195
185
172
192
181
169
242
241
240
255
255
255
255
255
255
255
255
255
255
255
255
255
255
255
255
255
255
255
255
255
255
255
255
255
255
255
255
255
255
255
255
255
255
255
255
255
255
255
173
147
108
192
151
83
217
177
104
233
194
117
246
210
131
245
210
131
250
214
136
251
216
134
209
181
114
172
145
93
154
130
79
193
162
101
255
227
143
255
230
146
254
227
144
255
232
147
255
234
149
255
233
148
255
232
146
255
231
144
255
231
147
255
227
143
255
231
148
255
232
147
255
233
149
255
236
153
255
235
151
255
235
152
255
237
153
255
243
159
197
175
109
87
81
65
122
123
118
111
107
99
244
221
160
202
192
173
195
190
180
196
189
179
196
190
179
202
193
180
133
127
116
86
81
70
82
79
70
124
113
93
206
198
184
216
191
146
212
192
148
208
193
162
87
80
75
14
13
11
21
21
20
21
21
20
19
19
18
26
26
26
25
27
27
34
35
37
61
55
44
181
159
123
225
205
150
219
195
143
194
183
165
197
188
174
188
176
153
192
176
143
139
128
105
117
113
104
73
66
48
94
75
54
33
29
22
51
43
30
32
26
20
99
78
35
152
133
90
38
32
18
224
200
133
78
72
64
188
176
154
192
179
165
163
154
142
102
94
83
68
65
57
90
85
73
197
186
175
191
182
174
192
182
172
195
183
170
193
184
178
255
255
255
255
255
255
255
255
255
255
255
255
255
255
255
255
255
255
255
255
255
255
255
255
255
255
255
255
255
255
255
255
255
255
255
255
255
255
255
159
125
75
190
151
85
217
177
102
228
188
111
241
202
124
247
211
132
248
213
131
255
224
140
71
50
19
46
27
10
60
35
11
172
137
93
255
231
147
255
226
142
255
228
143
254
232
147
255
233
148
255
230
146
255
229
143
255
233
146
255
234
151
255
233
149
255
232
146
255
231
146
255
233
147
254
229
144
255
234
151
255
234
150
254
228
145
255
237
154
221
199
125
178
158
124
187
175
161
201
187
167
198
192
182
193
187
179
194
188
180
198
190
179
199
191
179
199
191
180
169
164
154
104
89
69
109
94
74
172
157
131
196
192
184
242
209
142
230
202
134
211
192
145
141
138
134
88
103
115
103
124
138
108
128
142
105
122
135
65
68
71
74
76
75
84
87
87
149
148
139
222
199
152
194
186
173
196
188
174
202
184
154
202
185
155
217
198
153
111
109
106
53
49
38
75
65
49
43
42
35
42
40
38
38
38
36
40
40
39
32
32
30
31
30
26
31
31
29
26
26
24
81
84
74
118
117
110
182
173
161
114
90
67
152
138
116
190
182
173
184
177
172
177
162
141
182
168
150
188
180
172
187
180
172
193
182
171
190
178
169
247
246
246
255
255
255
255
255
255
255
255
255
255
255
255
255
255
255
255
255
255
255
255
255
255
255
255
255
255
255
255
255
255
255
255
255
215
214
210
161
124
71
198
160
90
208
168
97
234
195
117
246
208
129
245
208
130
250
216
134
255
234
145
30
17
2
42
27
8
77
49
14
217
187
122
255
230
144
255
229
144
254
229
143
254
230
144
255
232
147
255
231
147
255
236
152
255
236
153
255
239
155
255
238
153
255
237
151
255
237
152
255
236
149
255
235
148
255
234
146
255
233
144
255
231
144
255
224
138
211
183
111
89
76
56
97
96
86
103
103
95
207
189
145
199
187
165
180
170
139
152
141
85
203
195
181
161
151
138
158
151
137
129
139
143
139
148
149
181
172
156
168
147
116
187
181
169
195
188
181
167
151
132
227
204
135
220
205
155
192
178
151
189
171
135
218
196
135
230
211
149
220
205
161
196
177
143
219
196
137
240
215
142
193
188
179
194
187
176
195
188
177
198
188
175
195
187
176
190
182
169
148
155
158
156
156
153
112
83
60
21
20
19
19
19
19
17
19
18
17
17
18
18
19
18
18
18
18
14
16
17
196
136
69
181
173
159
193
186
179
163
153
145
136
123
102
181
172
164
143
127
108
155
133
101
161
141
108
143
138
127
174
163
157
148
138
126
183
175
169
193
186
182
255
255
255
255
255
255
255
255
255
255
255
255
255
255
255
255
255
255
255
255
255
255
255
255
255
255
255
255
255
255
255
255
255
159
147
130
169
132
71
198
159
89
221
181
107
231
190
112
237
197
117
244
204
124
249
212
130
250
212
127
197
160
93
219
182
107
234
197
120
255
227
141
255
225
137
255
221
135
250
215
132
241
208
128
234
203
128
221
194
123
218
191
129
216
194
136
209
190
139
199
181
136
192
176
136
179
164
132
167
153
123
157
145
121
141
131
115
142
133
120
120
115
107
103
101
96
82
80
77
156
165
168
184
187
184
194
191
184
200
192
180
209
197
175
170
161
137
129
108
68
200
192
175
191
183
166
209
190
142
207
195
168
192
183
167
80
82
80
59
69
73
118
102
73
233
199
124
244
224
152
246
218
134
238
204
127
228
190
113
237
201
121
249
226
142
253
235
151
234
205
127
181
173
159
191
183
172
181
172
160
195
188
177
194
187
176
195
188
176
197
190
179
195
186
171
177
164
142
202
186
158
130
119
98
104
96
88
20
19
19
18
19
19
18
19
21
18
20
21
19
19
21
18
19
20
36
33
25
105
95
76
126
111
77
98
88
78
168
156
130
175
163
152
184
177
168
112
116
119
96
107
115
97
106
112
139
135
128
188
179
170
178
169
160
184
178
170
179
172
167
239
238
238
255
255
255
255
255
255
255
255
255
255
255
255
255
255
255
255
255
255
255
255
255
255
255
255
255
255
255
254
254
254
155
131
94
152
117
62
158
126
72
163
130
77
168
136
77
170
139
82
161
130
78
157
129
76
154
127
79
136
113
67
118
96
62
108
89
59
79
69
52
80
73
66
67
63
60
65
63
61
65
66
68
63
65
67
59
59
60
55
52
49
50
45
41
40
35
27
43
35
25
46
38
26
51
40
27
56
45
29
65
52
36
70
57
41
76
63
44
80
66
48
86
69
51
84
70
53
156
133
95
165
142
110
181
158
119
195
184
162
196
186
168
176
173
164
130
132
128
197
190
179
201
192
174
253
226
149
203
187
151
195
189
179
199
191
177
188
186
176
123
98
66
244
210
120
255
233
140
247
224
142
242
210
132
246
219
136
243
210
128
242
208
125
244
214
123
251
228
136
87
74
57
189
184
174
130
118
96
194
186
168
198
190
180
195
186
175
199
191
180
202
191
167
192
180
159
108
100
84
61
56
45
73
64
51
16
17
17
14
14
13
13
12
11
11
10
9
11
10
10
13
13
12
32
26
18
88
85
73
89
94
96
93
93
87
160
150
130
191
182
173
190
181
172
177
172
166
159
157
157
135
129
123
162
155
149
187
178
169
190
179
168
190
180
166
182
171
155
197
195
195
255
255
255
255
255
255
255
255
255
255
255
255
255
255
255
255
255
255
255
255
255
255
255
255
255
255
255
248
248
248
37
37
36
31
31
30
29
29
29
21
21
18
23
21
17
22
19
14
28
22
16
33
25
18
43
34
23
48
39
27
56
44
30
64
51
34
74
58
42
76
62
44
78
64
45
78
66
48
78
64
45
77
65
47
77
64
47
77
63
46
75
63
48
75
64
48
74
63
49
71
61
47
70
61
48
69
60
47
69
59
47
72
63
49
75
66
51
78
67
54
79
68
54
78
67
55
95
108
114
95
106
106
126
136
136
188
181
165
197
188
174
159
150
136
118
101
77
110
92
67
199
190
179
254
233
148
233
214
153
193
190
180
194
185
164
203
196
180
114
100
78
240
197
104
255
225
131
238
205
123
249
218
130
252
226
132
240
207
120
249
217
125
250
213
120
248
212
120
124
94
57
205
198
185
103
102
102
132
127
109
197
189
178
195
187
178
194
187
176
195
187
175
197
192
181
188
181
170
114
114
111
112
128
136
88
109
126
85
104
119
96
116
135
95
119
137
101
124
144
103
128
149
115
136
152
140
151
161
172
170
168
179
176
170
181
176
171
182
177
171
182
177
171
177
171
164
80
85
96
73
83
81
85
87
86
173
165
154
193
181
169
189
178
164
184
176
169
174
168
165
243
243
243
255
255
255
255
255
255
255
255
255
255
255
255
255
255
255
255
255
255
255
255
255
255
255
255
252
252
252
79
65
49
71
56
39
71
58
41
70
57
42
72
58
43
69
57
43
68
56
43
68
58
44
68
57
44
68
56
44
65
57
45
67
57
46
65
58
46
65
56
46
66
56
46
62
55
45
54
49
41
46
41
33
64
57
47
65
58
46
64
58
47
64
57
47
65
58
48
66
58
44
31
27
20
58
52
42
63
56
47
70
68
62
78
84
83
81
89
90
84
92
93
92
97
94
163
158
145
177
169
157
177
172
161
154
132
100
189
184
174
164
155
137
145
117
79
147
123
87
197
189
176
236
211
148
227
211
152
189
183
173
172
157
133
171
167
155
145
135
120
154
133
85
147
128
95
148
129
93
145
128
92
141
125
93
137
122
91
136
122
96
127
114
88
107
94
73
86
72
55
181
174
160
200
188
170
183
177
167
185
179
169
192
185
173
192
185
174
185
179
173
193
187
176
124
123
119
88
96
96
87
99
103
103
119
127
106
128
147
103
127
151
93
113
129
86
106
126
102
125
143
106
112
118
164
157
148
182
178
172
136
122
107
160
147
132
125
107
89
155
139
117
188
179
173
150
137
121
131
120
111
110
95
86
147
136
117
190
180
173
122
109
103
113
97
95
113
99
85
183
181
174
255
255
255
255
255
255
255
255
255
255
255
255
255
255
255
255
255
255
255
255
255
255
255
255
255
255
255
131
121
109
68
58
46
67
57
45
63
55
45
61
56
46
58
53
44
59
53
44
58
53
45
59
53
44
58
53
43
59
53
43
60
53
44
59
54
44
59
55
44
61
55
46
62
56
45
42
36
26
45
38
30
61
55
45
61
56
47
61
56
48
61
56
46
61
56
45
63
56
45
63
56
46
41
37
30
29
29
25
25
28
29
24
26
27
26
29
28
22
23
20
23
21
18
139
120
86
194
185
166
176
171
157
85
81
72
180
175
163
145
144
136
66
68
66
62
64
61
194
187
176
213
191
142
202
181
138
192
186
173
76
83
84
159
157
148
105
103
96
25
22
24
22
21
20
19
17
17
19
17
18
22
20
22
23
23
24
26
27
29
28
30
32
33
37
37
58
64
65
146
142
130
191
180
160
171
158
140
185
177
165
180
173
162
183
180
174
187
182
172
182
179
173
187
183
176
184
183
178
111
115
121
93
101
106
87
99
112
87
101
112
75
90
104
98
120
133
88
104
117
123
127
129
135
130
124
161
154
147
162
157
151
159
151
142
168
162
154
171
161
150
160
154
147
164
154
142
172
161
148
175
169
163
175
169
162
151
137
123
156
144
128
177
172
166
186
178
170
178
170
163
253
252
253
255
255
255
255
255
255
255
255
255
255
255
255
255
255
255
255
255
255
255
255
255
255
255
255
221
218
215
66
56
43
62
54
44
57
52
43
58
51
44
55
51
42
56
53
44
56
51
42
56
52
44
57
54
45
58
54
46
59
55
47
59
55
46
59
55
46
59
54
44
58
53
44
60
54
43
59
52
44
57
53
43
57
52
43
58
53
45
57
53
44
58
51
43
57
52
43
55
50
42
26
23
18
27
29
31
68
82
93
76
93
106
78
95
107
85
101
109
101
118
125
155
160
158
169
171
170
167
168
163
149
155
156
182
179
171
171
172
169
72
81
84
101
109
114
150
145
138
183
177
164
157
148
135
158
152
138
182
179
172
194
189
179
159
164
163
106
125
138
110
132
144
117
142
157
127
152
170
127
151
168
126
150
170
128
151
168
131
152
170
130
149
163
156
163
169
190
184
173
182
179
171
182
181
175
185
181
174
187
178
162
195
184
166
186
183
176
192
185
176
190
178
159
172
157
137
160
162
160
156
162
167
152
150
144
96
94
90
136
138
136
138
143
148
148
146
142
93
78
63
153
134
106
171
168
164
188
178
166
113
87
56
119
97
62
172
167
156
184
177
171
114
87
61
58
48
31
159
148
125
178
174
171
134
111
89
50
41
26
154
133
95
177
171
168
174
169
162
190
188
187
255
255
255
255
255
255
255
255
255
255
255
255
255
255
255
255
255
255
255
255
255
255
255
255
255
255
255
80
70
59
62
56
45
58
55
45
58
53
44
58
55
47
58
55
46
58
53
43
57
54
45
56
54
44
59
55
46
59
56
46
59
55
46
59
56
46
58
54
44
58
55
46
55
52
44
52
48
39
48
45
37
44
40
34
40
36
31
33
31
26
26
23
20
19
18
15
15
14
11
13
12
9
14
13
11
18
17
14
26
27
27
24
22
18
21
20
15
21
20
14
22
21
15
28
27
23
122
123
122
175
174
172
177
177
174
175
176
174
173
175
170
179
175
165
183
178
164
179
174
162
177
177
173
177
176
172
197
183
153
179
171
156
175
175
172
172
173
170
187
166
131
175
155
120
169
169
164
172
171
167
215
187
138
122
105
75
202
183
142
172
169
162
222
206
162
58
47
36
163
139
91
180
180
178
184
180
172
87
70
45
83
68
40
172
160
140
180
179
173
137
112
80
45
37
25
199
167
109
180
176
168
184
162
135
65
51
32
160
130
78
169
166
162
180
175
166
123
105
82
139
113
71
178
172
163
180
175
169
175
159
138
157
135
101
174
167
160
174
171
167
173
166
163
148
135
115
155
149
141
164
163
160
162
158
158
138
133
127
101
92
91
146
143
137
155
155
157
165
164
170
255
255
255
255
255
255
255
255
255
255
255
255
255
255
255
255
255
255
255
255
255
255
255
255
255
255
255
103
97
87
53
48
39
44
42
35
39
37
31
33
32
26
29
27
22
22
21
17
20
18
14
18
16
13
17
15
12
16
15
12
14
13
11
13
12
10
13
12
9
12
11
8
13
11
9
12
11
8
13
11
8
12
10
7
11
10
8
14
12
9
13
12
9
13
12
10
14
12
9
12
11
9
14
13
10
17
17
12
18
16
12
19
17
12
20
18
13
21
18
14
22
20
14
23
21
16
43
41
35
175
176
173
174
174
172
175
175
172
178
178
173
210
178
109
36
30
23
192
168
116
177
177
175
200
186
159
53
38
20
175
144
83
170
170
168
184
179
172
155
125
78
130
103
59
182
173
152
176
174
169
181
169
147
129
113
87
193
177
144
181
181
177
185
182
175
169
155
131
163
150
128
163
161
157
174
175
173
150
144
137
137
129
116
154
142
128
172
167
155
172
166
160
131
119
101
145
138
132
157
155
148
174
175
174
123
116
109
127
121
113
120
116
106
172
172
172
144
143
144
125
122
120
130
128
129
149
151
152
127
128
131
100
99
103
88
88
86
99
100
100
94
95
98
72
71
70
58
58
56
62
62
61
53
54
54
41
38
36
36
34
31
35
33
27
36
33
27
162
158
152
255
255
255
255
255
255
255
255
255
255
255
255
255
255
255
255
255
255
255
255
255
255
255
255
255
255
255
253
253
253
18
12
7
11
9
7
11
9
7
11
9
7
11
9
7
11
10
8
12
10
8
12
10
8
12
10
7
12
10
8
13
11
8
14
11
9
13
11
8
13
11
9
13
11
8
14
12
9
13
12
9
14
12
9
13
12
9
20
18
15
28
27
24
42
41
38
58
56
53
73
72
69
57
55
53
15
12
9
15
14
11
16
14
10
16
14
11
15
14
10
14
13
11
16
15
12
24
23
20
171
170
169
175
176
172
176
175
172
177
176
172
188
172
141
168
150
122
174
163
140
175
175
172
179
177
173
168
157
138
151
140
126
155
151
144
179
180
177
148
145
140
145
142
135
154
152
146
181
183
182
156
155
153
138
135
128
130
128
124
152
153
150
151
153
152
112
110
107
103
101
95
103
101
97
117
117
115
99
97
92
90
87
81
79
78
71
91
90
87
78
76
75
68
67
64
56
55
50
58
58
53
59
59
57
52
52
50
39
39
36
39
39
37
35
36
32
30
30
27
25
24
21
16
14
10
11
9
6
13
10
5
14
12
6
13
11
7
11
9
6
13
11
6
14
12
7
14
12
7
13
12
7
13
13
8
17
14
9
18
14
9
17
14
9
16
13
9
210
207
204
255
255
255
255
255
255
255
255
255
255
255
255
255
255
255
255
255
255
255
255
255
255
255
255
255
255
255
178
175
171
14
11
8
18
17
14
22
20
18
26
25
23
34
33
30
42
41
38
51
50
47
62
60
58
74
73
71
89
88
86
105
103
102
120
119
117
137
136
134
157
156
155
175
174
173
194
193
192
213
213
212
228
228
227
243
243
242
254
254
254
255
255
255
255
255
255
255
255
255
255
255
255
253
253
252
161
160
156
115
113
111
124
123
120
154
153
151
183
183
182
203
203
201
162
161
158
51
50
46
49
49
44
114
114
113
133
135
134
130
131
131
100
101
99
97
96
94
88
86
84
103
105
105
101
103
102
95
97
94
77
77
75
76
77
73
69
69
67
63
64
60
55
55
51
47
46
40
40
38
32
39
35
26
35
32
23
35
33
22
35
32
22
35
32
22
37
34
24
38
36
26
36
32
23
40
39
29
38
35
26
37
35
25
37
36
26
44
43
36
42
40
34
42
40
33
31
29
25
35
33
29
32
31
27
26
24
17
25
24
18
28
26
21
30
29
22
24
22
18
18
16
12
15
13
10
13
12
8
14
12
8
13
12
8
15
14
10
18
18
13
23
20
17
28
25
22
35
33
30
42
41
37
50
48
45
62
61
58
73
71
68
87
84
82
146
143
140
254
254
254
255
255
255
255
255
255
255
255
255
255
255
255
255
255
255
255
255
255
255
255
255
255
255
255
255
255
255
234
233
232
217
217
216
228
228
227
237
237
236
247
247
247
252
253
252
255
255
255
255
255
255
255
255
255
255
255
255
255
255
255
255
255
255
255
255
255
255
255
255
255
255
255
255
255
255
255
255
255
255
255
255
255
255
255
255
255
255
255
255
255
255
255
255
255
255
255
255
255
255
255
255
255
255
255
255
255
255
255
255
255
255
255
255
255
255
255
255
255
255
255
255
255
255
255
255
255
219
218
216
25
24
18
23
22
16
22
21
15
24
22
16
27
25
19
28
25
18
27
25
18
27
25
18
35
32
26
42
43
37
45
45
40
44
43
37
37
36
27
40
38
31
35
31
23
33
31
20
38
37
27
36
31
22
41
38
30
36
31
22
32
27
17
27
24
15
27
24
15
27
23
15
23
20
12
23
18
12
21
18
11
19
16
10
18
15
11
15
13
10
17
14
10
14
12
9
13
12
9
14
12
9
18
15
14
21
18
15
24
21
18
26
22
21
29
27
24
39
36
33
53
51
47
115
113
110
144
143
140
169
167
165
188
187
185
206
204
202
222
221
220
235
235
234
245
244
244
250
250
250
255
255
255
255
255
255
255
255
255
255
255
255
255
255
255
255
255
255
255
255
255
255
255
255
255
255
255
255
255
255
255
255
255
255
255
255
255
255
255
255
255
255
255
255
255
255
255
255
255
255
255
255
255
255
255
255
255
255
255
255
255
255
255
255
255
255
255
255
255
255
255
255
255
255
255
255
255
255
255
255
255
255
255
255
255
255
255
255
255
255
255
255
255
255
255
255
255
255
255
255
255
255
255
255
255
255
255
255
255
255
255
255
255
255
255
255
255
255
255
255
255
255
255
255
255
255
255
255
255
255
255
255
255
255
255
255
255
255
255
255
255
255
255
255
255
255
255
251
251
251
23
20
16
19
18
14
21
19
13
20
18
14
21
19
13
23
20
13
21
18
14
20
17
13
20
17
13
22
18
13
21
17
13
19
16
12
18
16
12
20
16
11
18
16
11
19
15
11
19
15
11
19
14
11
18
15
10
18
14
10
18
14
11
19
13
9
28
23
20
38
33
28
71
67
63
74
72
69
101
99
95
140
138
135
139
137
133
159
158
154
190
189
187
199
198
196
212
212
210
220
219
218
231
230
230
238
238
238
242
242
241
247
246
246
250
250
250
252
252
252
253
253
253
255
255
255
255
255
255
255
255
255
255
255
255
255
255
255
255
255
255
255
255
255
255
255
255
255
255
255
255
255
255
255
255
255
255
255
255
255
255
255
255
255
255
255
255
255
255
255
255
255
255
255
255
255
255
255
255
255
255
255
255
255
255
255
255
255
255
255
255
255
255
255
255
255
255
255
255
255
255
255
255
255
255
255
255
255
255
255
255
255
255
255
255
255
255
255
255
255
255
255
255
255
255
255
255
255
255
255
255
255
255
255
255
255
255
255
255
255
255
255
255
255
255
255
255
255
255
255
255
255
255
255
255
255
255
255
255
255
255
255
255
255
255
255
255
255
255
255
255
255
255
255
255
255
255
255
255
255
255
255
255
255
255
255
255
255
255
255
255
255
255
255
255
255
255
255
255
255
191
190
188
69
67
63
54
51
48
68
65
62
84
81
77
78
75
72
96
93
90
105
102
98
90
87
83
96
92
89
105
103
99
119
118
115
146
143
140
148
146
143
173
171
168
182
180
178
187
186
184
203
201
200
201
200
198
228
228
227
242
241
240
243
243
242
255
255
255
255
255
255
255
255
255
255
255
255
255
255
255
255
255
255
255
255
255
255
255
255
255
255
255
255
255
255
255
255
255
255
255
255
255
255
255
255
255
255
255
255
255
255
255
255
255
255
255
255
255
255
255
255
255
255
255
255
255
255
255
255
255
255
255
255
255
255
255
255
255
255
255
255
255
255
255
255
255
255
255
255
255
255
255
255
255
255
255
255
255
255
255
255
255
255
255
255
255
255
255
255
255
255
255
255
255
255
255
255
255
255
255
255
255
255
255
255
255
255
255
255
255
255
255
255
255
255
255
255
255
255
255
255
255
255
255
255
255
255
255
255
255
255
255
255
255
255
255
255
255
255
255
255
255
255
255
255
255
255
255
255
255
255
255
255
255
255
255
255
255
255
255
255
255
255
255
255
255
255
255
255
255
255
255
255
255
255
255
255
255
255
255
255
255
255
255
255
255
255
255
255
255
255
255
255
255
255
255
255
255
255
255
255
255
255
255
255
255
255
255
255
255
255
255
255
255
255
255
255
255
255
255
255
255
255
255
255
255
255
255
255
255
255
255
255
255
255
255
255
255
255
255
255
255
255
255
255
255
255
255
255
255
255
255
255
255
255
255
255
255
255
255
255
255
255
255
255
255
255
255
255
255
255
255
255
255
255
255
255
255
255
255
255
255
255
255
255
255
255
255
255
255
255
255
255
255
255
255
255
255
255
255
255
255
255
255
255
255
255
255
255
255
255
255
255
255
255
255
255
255
255
255
255
255
255
255
255
255
255
255
255
255
255
255
255
255
255
255
255
255
255
255
255
255
255
255
255
255
255
255
255
255
255
255
255
255
255
255
255
255
255
255
255
255
255
255
255
255
255
255
255
255
255
255
255
255
255
255
255
255
255
255
255
255
255
255
255
255
255
255
255
255
255
255
255
255
255
255
255
255
255
255
255
255
255
255
255
255
255
255
255
255
255
255
255
255
255
255
255
255
255
255
255
255
255
255
255
255
255
255
255
255
255
255
255
255
255
255
255
255
255
255
255
255
255
255
255
255
255
255
255
255
255
255
255
255
255
255
255
255
255
255
255
255
255
255
255
255
255
255
255
255
255
255
255
255
255
255
255
255
255
255
255
255
255
255
255
255
255
255
255
255
255
255
255
255
255
255
255
255
255
255
255
255
255
255
255
255
255
255
255
255
255
255
255
255
255
255
255
255
255
255
255
255
255
255
255
255
255
255
255
255
255
255
255
255
255
255
255
255
255
255
255
255
255
255
255
255
255
255
255
255
255
255
255
255
255
255
255
255
255
255
255
255
255
255
255
255
255
255
255
255
255
255
255
255
255
255
255
255
255
255
255
255
255
255
255
255
255
255
255
255
255
255
255
255
255
255
255
255
255
255
255
255
255
255
255
255
255
255
255
255
255
255
255
255
255
255
255
255
255
255
255
255
255
255
255
255
255
255
255
255
255
255
255
255
255
255
255
255
255
255
255
255
255
255
255
255
255
255
255
255
255
255
255
255
255
255
255
255
255
255
255
255
255
255
255
255
255
255
255
255
255
255
255
255
255
255
255
255
255
255
255
255
255
255
255
255
255
255
255
255
255
255
255
255
255
255
255
255
255
255
255
255
255
255
255
255
255
255
255
255
255
255
255
255
255
255
255
255
255
255
255
255
255
255
255
255
255
255
255
255
255
255
255
255
255
255
255
255
255
255
255
255
255
255
255
255
255
255
255
255
255
255
255
255
255
255
255
255
255
255
255
255
255
255
255
255
255
255
255
255
255
255
255
255
255
255
255
255
255
255
255
255
255
255
255
255
255
255
255
255
255
255
255
255
255
255
255
255
255
255
255
255
255
255
255
255
255
255
255
255
255
255
255
255
255
255
255
255
255
255
255
255
255
255
255
255
255
255
255
255
255
255
255
255
255
255
255
255
255
255
255
255
255
255
255
255
255
255
255
255
255
255
255
255
255
255
255
255
255
255
255
255
255
255
255
255
255
255
255
255
255
255
255
255
255
255
255
255
255
255
255
255
255
255
255
255
255
255
255
255
255
255
255
255
255
255
255
255
255
255
255
255
255
255
255
255
255
255
255
255
255
255
255
255
255
255
255
255
255
255
255
255
255
255
255
255
255
255
255
255
255
255
255
255
255
255
255
255
255
255
255
255
255
255
255
255
255
255
255
255
255
255
255
255
255
255
255
255
255
255
255
255
255
255
255
255
255
255
255
255
255
255
255
255
255
255
255
255
255
255
255
255
255
255
255
255
255
255
255
255
255
255
255
255
255
255
255
255
255
255
255
255
255
255
255
255
255
255
255
255
255
255
255
255
255
255
255
255
255
255
255
255
255
255
255
255
255
255
255
255
255
255
255
255
255
255
255
255
255
255
255
255
255
255
255
255
255
255
255
255
255
255
255
255
255
255
255
255
255
255
255
255
255
255
255
255
255
255
255
255
255
255
255
255
255
255
255
255
255
255
255
255
255
255
255
255
255
255
255
255
255
255
255
255
255
255
255
255
255
255
255
255
255
255
255
255
255
255
255
255
255
255
255
255
255
255
255
255
255
255
255
255
255
255
255
255
255
255
255
255
255
255
255
255
255
255
255
255
255
255
255
255
255
255
255
255
255
255
255
255
255
255
255
255
255
255
255
255
255
255
255
255
255
255
255
255
255
255
255
255
255
255
255
255
255
255
255
255
255
255
255
255
255
255
255
255
255
255
255
255
255
255
255
255
255
255
255
255
255
255
255
255
255
255
255
255
255
255
255
255
255
255
255
255
255
255
255
255
255
255
255
255
255
255
255
255
255
255
255
255
255
255
255
255
255
255
255
255
255
255
255
255
255
255
255
255
255
255
255
255
255
255
255
255
255
255
255
255
255
255
255
255
255
255
255
255
255
255
255
255
255
255
255
255
255
255
255
255
255
255
255
255
255
255
255
255
255
255
255
255
255
255
255
255
255
255
255
255
255
255
255
255
255
255
255
255
255
255
255
255
255
255
255
255
255
255
255
255
255
255
255
255
255
255
255
255
255
255
255
255
255
255
255
255
255
255
255
255
255
255
255
255
255
255
255
255
255
255
255
255
255
255
255
255
255
255
255
255
255
255
255
255
255
255
255
255
255
255
255
255
255
255
255
255
255
255
255
255
255
255
255
255
255
255
255
255
255
255
255
255
255
255
255
255
255
255
255
255
255
255
255
255
255
255
255
255
255
255
255
255
255
255
255
255
255
255
255
255
255
255
255
255
255
255
255
255
255
255
255
255
255
255
255
255
255
255
255
255
255
255
255
255
255
255
255
255
255
255
255
255
255
255
255
255
255
255
255
255
255
255
255
255
255
255
255
255
255
255
255
255
255
255
255
255
255
255
255
255
255
255
255
255
255
255
255
255
255
255
255
255
255
255
255
255
255
255
255
255
255
255
255
255
255
255
255
255
255
255
255
255
255
255
255
255
255
255
255
255
255
255
255
255
255
255
255
255
255
255
255
255
255
255
255
255
255
255
255
255
255
255
255
255
255
255
255
255
255
255
255
255
255
255
255
255
255
255
255
255
255
255
255
255
255
255
255
255
255
255
255
255
255
255
255
255
255
255
255
255
255
255
255
255
255
255
255
255
255
255
255
255
255
255
255
255
255
255
255
255
255
255
255
255
255
255
255
255
255
255
255
255
255
255
255
255
255
255
255
255
255
255
255
255
255
255
255
255
255
255
255
255
255
255
255
255
255
255
255
255
255
255
255
255
255
255
255
255
255
255
255
255
255
255
255
255
255
255
255
255
255
255
255
255
255
255
255
255
255
255
255
255
255
255
255
255
255
255
255
255
255
255
255
255
255
255
255
255
255
255
255
255
255
255
255
255
255
255
255
255
255
255
255
255
255
255
255
255
255
255
255
255
255
255
255
255
255
255
255
255
255
255
255
255
255
255
255
255
255
255
255
255
255
255
255
255
255
255
255
255
255
255
255
255
255
255
255
255
255
255
255
255
255
255
255
255
255
255
255
255
255
255
255
255
255
255
255
255
255
255
255
255
255
255
255
255
255
255
255
255
255
255
255
255
255
255
255
255
255
255
255
255
255
255
255
255
255
255
255
255
255
255
255
255
255
255
255
255
255
255
255
255
255
255
255
255
255
255
255
255
255
255
255
255
255
255
255
255
255
255
255
255
255
255
255
255
255
255
255
255
255
255
255
255
255
255
255
255
255
255
255
255
255
255
255
255
255
255
255
255
255
255
255
255
255
255
255
255
255
255
255
255
255
255
255
255
255
255
255
255
255
255
255
255
255
255
255
255
255
255
255
255
255
255
255
255
255
255
255
255
255
255
255
255
255
255
255
255
255
255
255
255
255
255
255
255
255
255
255
255
255
255
255
255
255
255
255
255
255
255
255
255
255
255
255
255
255
255
255
255
255
255
255
255
255
255
255
255
255
255
255
255
255
255
255
255
255
255
255
255
255
255
255
255
255
255
255
255
255
255
255
255
255
255
255
255
255
255
255
255
255
255
255
255
255
255
255
255
255
255
255
255
255
255
255
255
255
255
255
255
255
255
255
255
255
255
255
255
255
255
255
255
255
255
255
255
255
255
255
255
255
255
255
255
255
255
255
255
255
255
255
255
255
255
255
255
255
255
255
255
255
255
255
255
255
255
255
255
255
255
255
255
255
255
255
255
255
255
255
255
255
255
255
255
255
255
255
255
255
255
255
255
255
255
255
255
255
255
255
255
255
255
255
255
255
255
255
255
255
255
255
255
255
255
255
255
255
255
255
255
255
255
255
255
255
255
255
255
255
255
255
255
255
255
255
255
255
255
255
255
255
255
255
255
255
255
255
255
255
255
255
255
255
255
255
255
255
255
255
255
255
255
255
255
255
255
255
255
255
255
255
255
255
255
255
255
255
255
255
255
255
255
255
255
255
255
255
255
255
255
255
255
255
255
255
255
255
255
255
255
255
255
255
255
255
255
255
255
255
255
255
255
255
255
255
255
255
255
255
255
255
255
255
255
255
255
255
255
255
255
