P3
# CREATOR: GIMP PNM Filter Version 1.1
58 64
255
255
255
255
255
255
255
255
255
255
255
255
255
255
255
255
255
255
255
255
255
255
255
255
255
255
255
255
255
255
255
255
255
255
255
255
255
255
255
255
255
255
255
255
255
255
255
255
255
255
255
255
255
255
255
255
255
255
255
255
255
255
255
255
255
255
255
255
255
255
255
255
255
255
255
255
255
255
255
255
255
255
255
255
255
255
255
255
255
255
255
255
255
255
255
255
255
255
255
255
255
255
255
255
255
255
255
255
255
255
255
255
255
255
255
255
255
255
255
255
255
255
255
255
255
255
255
255
255
255
255
255
255
255
255
255
255
255
255
255
255
255
255
255
255
255
255
255
255
255
255
255
255
255
255
255
255
255
255
255
255
255
255
255
255
255
255
255
255
255
255
255
255
255
255
255
255
255
255
255
255
255
255
255
255
255
255
255
255
255
255
255
255
255
255
255
255
255
255
255
255
255
255
255
255
255
255
255
255
255
255
255
255
255
255
255
255
255
255
255
255
255
255
255
255
255
255
255
255
255
255
255
255
255
255
255
255
255
255
255
255
255
255
255
255
255
255
255
255
255
255
255
255
255
255
255
255
255
255
255
255
255
255
255
255
255
255
255
255
255
255
255
255
255
255
255
255
255
255
255
255
255
255
255
255
255
255
255
255
255
255
255
255
255
255
255
255
255
255
255
255
255
255
255
255
255
255
255
255
255
255
255
255
255
255
255
255
255
255
255
255
255
255
255
255
255
255
255
255
255
255
255
255
255
255
255
255
255
255
255
255
255
255
255
255
255
255
255
255
255
255
255
255
255
255
255
255
255
255
255
255
255
255
255
255
255
255
255
255
255
255
255
255
255
255
255
255
255
255
255
255
255
255
255
255
255
255
255
255
255
255
255
255
255
255
255
255
255
255
255
255
255
255
255
255
255
255
255
255
255
255
255
255
255
255
255
255
255
255
255
255
255
255
255
255
255
255
255
255
255
255
255
255
255
255
255
255
255
255
255
255
255
255
255
255
255
255
255
255
255
255
255
255
255
255
255
255
255
255
255
255
255
255
255
255
255
255
255
255
255
255
255
255
255
255
255
255
255
255
255
255
255
255
255
255
255
255
255
255
255
255
255
255
255
255
255
255
255
255
255
255
255
255
255
255
255
255
255
255
255
255
255
255
255
255
255
255
255
255
255
255
255
255
255
255
255
255
255
255
255
255
255
255
255
255
255
255
255
255
255
255
255
255
255
255
255
255
255
255
255
255
255
255
255
255
255
255
255
255
255
255
255
255
255
255
255
255
255
255
255
255
255
255
255
255
255
255
255
255
255
255
255
255
255
255
255
255
255
255
255
255
255
255
255
255
255
255
255
255
255
255
255
255
255
255
255
255
255
255
255
255
255
255
255
255
255
255
255
255
255
255
255
255
255
255
255
255
255
255
255
255
255
255
255
255
255
255
255
255
255
255
255
255
255
255
255
255
255
255
255
255
255
255
255
255
255
255
255
255
255
255
255
255
255
255
255
255
255
255
255
255
255
255
255
255
255
255
255
255
255
255
255
255
255
255
255
255
255
255
255
255
255
255
255
255
255
255
255
255
255
255
255
255
255
255
255
255
255
255
255
255
255
255
255
255
255
255
255
255
255
255
255
255
255
255
255
255
255
255
255
255
255
255
255
255
255
255
255
255
255
255
255
255
255
255
255
255
255
255
255
255
255
255
255
255
255
255
255
255
255
255
255
255
255
255
255
255
255
255
255
255
255
255
255
255
255
255
255
255
255
255
255
255
255
255
255
255
255
255
255
255
255
255
255
255
255
255
255
255
255
255
255
255
255
255
255
255
255
255
255
255
255
255
255
255
255
255
255
255
255
255
255
255
255
255
255
255
255
255
255
255
255
255
255
255
255
255
255
255
255
255
255
255
255
255
255
255
255
255
255
255
255
255
255
255
255
255
255
255
255
255
255
255
255
255
255
255
255
255
255
255
255
255
255
255
255
255
255
255
255
255
255
255
255
255
255
255
255
255
255
255
255
255
255
255
255
255
255
255
255
255
255
255
255
255
255
255
255
255
255
255
255
255
255
255
255
255
255
255
255
255
255
255
255
255
255
255
255
255
255
255
255
255
255
255
255
255
255
255
255
255
255
255
255
255
255
255
255
255
255
255
255
255
255
255
255
255
255
255
255
255
255
255
255
255
255
255
255
255
255
255
255
255
255
255
255
255
255
255
255
255
255
255
255
255
255
255
255
255
255
255
255
255
255
255
255
255
255
255
255
255
255
255
255
255
255
255
255
255
255
255
255
255
255
255
255
255
255
255
255
255
255
255
255
255
255
255
255
255
255
255
255
255
255
255
255
255
255
255
255
255
255
255
255
255
255
255
255
255
255
255
255
255
255
255
255
255
255
255
255
255
255
255
255
255
255
255
255
255
255
255
255
255
255
255
255
255
255
255
255
255
255
255
255
255
255
255
255
255
255
255
255
255
255
255
255
255
255
255
255
255
255
255
255
255
255
255
255
255
255
255
255
255
255
219
219
219
130
130
131
121
121
122
118
118
119
138
138
139
188
188
189
255
255
255
255
255
255
255
255
255
255
255
255
255
255
255
255
255
255
255
255
255
255
255
255
255
255
255
255
255
255
255
255
255
255
255
255
255
255
255
255
255
255
255
255
255
255
255
255
255
255
255
255
255
255
255
255
255
255
255
255
255
255
255
255
255
255
255
255
255
255
255
255
255
255
255
255
255
255
255
255
255
255
255
255
255
255
255
255
255
255
255
255
255
255
255
255
255
255
255
255
255
255
255
255
255
255
255
255
255
255
255
255
255
255
255
255
255
255
255
255
255
255
255
255
255
255
255
255
255
255
255
255
255
255
255
255
255
255
255
255
255
255
255
255
255
255
255
255
255
255
245
245
245
79
79
80
2
2
4
2
2
4
2
2
4
2
2
4
2
2
4
2
2
4
17
17
19
181
181
182
252
252
252
255
255
255
255
255
255
255
255
255
255
255
255
255
255
255
255
255
255
255
255
255
255
255
255
255
255
255
255
255
255
255
255
255
255
255
255
255
255
255
255
255
255
255
255
255
255
255
255
255
255
255
255
255
255
255
255
255
255
255
255
255
255
255
255
255
255
255
255
255
255
255
255
255
255
255
255
255
255
255
255
255
255
255
255
255
255
255
255
255
255
255
255
255
255
255
255
255
255
255
255
255
255
255
255
255
255
255
255
255
255
255
255
255
255
255
255
255
255
255
255
255
255
255
255
255
255
255
255
255
255
255
255
255
255
255
255
255
255
214
214
214
31
31
33
2
2
4
2
2
4
2
2
4
2
2
4
2
2
4
2
2
4
6
6
7
20
20
20
6
6
7
83
83
84
222
222
226
255
255
255
255
255
255
255
255
255
255
255
255
255
255
255
255
255
255
255
255
255
255
255
255
255
255
255
255
255
255
255
255
255
255
255
255
255
255
255
255
255
255
255
255
255
255
255
255
255
255
255
255
255
255
255
255
255
255
255
255
255
255
255
255
255
255
255
255
255
255
255
255
255
255
255
255
255
255
255
255
255
255
255
255
255
255
255
255
255
255
255
255
255
255
255
255
255
255
255
255
255
255
255
255
255
255
255
255
255
255
255
255
255
255
255
255
255
255
255
255
255
255
255
255
255
255
255
255
255
255
255
255
255
255
255
63
63
65
2
2
4
2
2
4
2
2
4
2
2
4
2
2
4
2
2
4
2
2
4
17
17
18
93
93
93
65
64
64
8
7
8
53
53
55
242
242
242
255
255
255
255
255
255
255
255
255
255
255
255
255
255
255
255
255
255
255
255
255
255
255
255
255
255
255
255
255
255
255
255
255
255
255
255
255
255
255
255
255
255
255
255
255
255
255
255
255
255
255
255
255
255
255
255
255
255
255
255
255
255
255
255
255
255
255
255
255
255
255
255
255
255
255
255
255
255
255
255
255
255
255
255
255
255
255
255
255
255
255
255
255
255
255
255
255
255
255
255
255
255
255
255
255
255
255
255
255
255
255
255
255
255
255
255
255
255
255
255
255
255
255
255
255
255
255
255
255
200
200
200
2
2
4
2
2
4
2
2
4
2
2
4
2
2
4
2
2
4
2
2
4
1
1
3
23
23
22
93
93
93
63
63
63
23
23
22
1
1
3
145
145
146
255
255
255
255
255
255
255
255
255
255
255
255
255
255
255
255
255
255
255
255
255
255
255
255
255
255
255
255
255
255
255
255
255
255
255
255
255
255
255
255
255
255
255
255
255
255
255
255
255
255
255
255
255
255
255
255
255
255
255
255
255
255
255
255
255
255
255
255
255
255
255
255
255
255
255
255
255
255
255
255
255
255
255
255
255
255
255
255
255
255
255
255
255
255
255
255
255
255
255
255
255
255
255
255
255
255
255
255
255
255
255
255
255
255
255
255
255
255
255
255
255
255
255
255
255
255
255
255
255
56
56
58
2
2
4
2
2
4
2
2
4
2
2
4
2
2
4
2
2
4
2
2
4
2
2
4
13
12
13
20
20
20
6
6
8
4
4
5
2
2
4
3
3
7
250
250
250
255
255
255
255
255
255
255
255
255
255
255
255
255
255
255
255
255
255
255
255
255
255
255
255
255
255
255
255
255
255
255
255
255
255
255
255
255
255
255
255
255
255
255
255
255
255
255
255
255
255
255
255
255
255
255
255
255
255
255
255
255
255
255
255
255
255
255
255
255
255
255
255
255
255
255
255
255
255
255
255
255
255
255
255
255
255
255
255
255
255
255
255
255
255
255
255
255
255
255
255
255
255
255
255
255
255
255
255
255
255
255
255
255
255
255
255
255
255
255
255
255
255
255
255
255
255
2
2
4
2
2
4
2
2
4
2
2
4
2
2
4
2
2
4
2
2
4
2
2
4
2
2
4
2
2
4
2
2
4
2
2
4
2
2
4
2
2
4
2
2
4
153
153
154
255
255
255
255
255
255
255
255
255
255
255
255
255
255
255
255
255
255
255
255
255
255
255
255
255
255
255
255
255
255
255
255
255
255
255
255
255
255
255
255
255
255
255
255
255
255
255
255
255
255
255
255
255
255
255
255
255
255
255
255
255
255
255
255
255
255
255
255
255
255
255
255
255
255
255
255
255
255
255
255
255
255
255
255
255
255
255
255
255
255
255
255
255
255
255
255
255
255
255
255
255
255
255
255
255
255
255
255
255
255
255
255
255
255
255
255
255
255
255
255
255
255
255
228
228
228
2
2
4
3
3
4
0
0
0
14
14
15
8
8
10
2
2
4
2
2
4
2
1
3
0
0
0
10
10
10
7
7
8
22
22
23
2
2
4
2
2
4
2
2
4
66
66
67
255
255
255
255
255
255
255
255
255
255
255
255
255
255
255
255
255
255
255
255
255
255
255
255
255
255
255
255
255
255
255
255
255
255
255
255
255
255
255
255
255
255
255
255
255
255
255
255
255
255
255
255
255
255
255
255
255
255
255
255
255
255
255
255
255
255
255
255
255
255
255
255
255
255
255
255
255
255
255
255
255
255
255
255
255
255
255
255
255
255
255
255
255
255
255
255
255
255
255
255
255
255
255
255
255
255
255
255
255
255
255
255
255
255
255
255
255
255
255
255
255
255
255
230
230
230
2
2
4
11
11
12
100
100
100
63
64
64
19
19
19
2
2
4
2
2
4
10
10
11
100
99
100
150
150
150
130
129
129
19
19
19
4
4
6
2
2
4
2
2
4
25
25
27
255
255
255
255
255
255
255
255
255
255
255
255
255
255
255
255
255
255
255
255
255
255
255
255
255
255
255
255
255
255
255
255
255
255
255
255
255
255
255
255
255
255
255
255
255
255
255
255
255
255
255
255
255
255
255
255
255
255
255
255
255
255
255
255
255
255
255
255
255
255
255
255
255
255
255
255
255
255
255
255
255
255
255
255
255
255
255
255
255
255
255
255
255
255
255
255
255
255
255
255
255
255
255
255
255
255
255
255
255
255
255
255
255
255
255
255
255
255
255
255
255
255
255
230
230
230
2
2
4
83
84
84
204
204
203
206
206
205
55
54
54
2
2
4
1
1
3
131
131
130
220
219
219
202
202
201
223
222
222
80
80
80
4
4
6
2
2
4
2
2
4
20
20
22
255
255
255
255
255
255
255
255
255
255
255
255
255
255
255
255
255
255
255
255
255
255
255
255
255
255
255
255
255
255
255
255
255
255
255
255
255
255
255
255
255
255
255
255
255
255
255
255
255
255
255
255
255
255
255
255
255
255
255
255
255
255
255
255
255
255
255
255
255
255
255
255
255
255
255
255
255
255
255
255
255
255
255
255
255
255
255
255
255
255
255
255
255
255
255
255
255
255
255
255
255
255
255
255
255
255
255
255
255
255
255
255
255
255
255
255
255
255
255
255
255
255
255
230
230
233
1
1
3
148
148
147
88
88
89
153
153
152
152
151
151
6
5
7
22
22
23
225
225
224
157
157
157
71
71
72
142
142
142
192
192
191
8
8
10
2
2
4
2
2
4
17
17
19
236
236
236
255
255
255
255
255
255
255
255
255
255
255
255
255
255
255
255
255
255
255
255
255
255
255
255
255
255
255
255
255
255
255
255
255
255
255
255
255
255
255
255
255
255
255
255
255
255
255
255
255
255
255
255
255
255
255
255
255
255
255
255
255
255
255
255
255
255
255
255
255
255
255
255
255
255
255
255
255
255
255
255
255
255
255
255
255
255
255
255
255
255
255
255
255
255
255
255
255
255
255
255
255
255
255
255
255
255
255
255
255
255
255
255
255
255
255
255
255
255
255
255
244
244
244
2
2
4
127
127
128
13
13
14
86
87
87
137
137
134
25
22
17
46
44
39
223
223
222
44
45
46
6
6
7
45
45
45
215
215
214
12
12
14
2
2
4
2
2
4
17
17
19
237
237
237
255
255
255
255
255
255
255
255
255
255
255
255
255
255
255
255
255
255
255
255
255
255
255
255
255
255
255
255
255
255
255
255
255
255
255
255
255
255
255
255
255
255
255
255
255
255
255
255
255
255
255
255
255
255
255
255
255
255
255
255
255
255
255
255
255
255
255
255
255
255
255
255
255
255
255
255
255
255
255
255
255
255
255
255
255
255
255
255
255
255
255
255
255
255
255
255
255
255
255
255
255
255
255
255
255
255
255
255
255
255
255
255
255
255
255
255
255
255
255
255
255
255
255
2
2
4
136
135
135
21
23
28
50
38
18
166
132
34
184
144
9
153
118
2
196
170
79
86
76
48
0
0
0
54
55
58
214
214
213
10
10
12
2
2
4
2
2
4
16
16
18
234
234
234
255
255
255
255
255
255
255
255
255
255
255
255
255
255
255
255
255
255
255
255
255
255
255
255
255
255
255
255
255
255
255
255
255
255
255
255
255
255
255
255
255
255
255
255
255
255
255
255
255
255
255
255
255
255
255
255
255
255
255
255
255
255
255
255
255
255
255
255
255
255
255
255
255
255
255
255
255
255
255
255
255
255
255
255
255
255
255
255
255
255
255
255
255
255
255
255
255
255
255
255
255
255
255
255
255
255
255
255
255
255
255
255
255
255
255
255
255
255
255
255
255
255
255
3
3
5
94
96
99
177
158
119
195
140
3
236
181
10
233
190
12
232
197
19
240
207
38
235
198
23
179
141
9
214
199
162
116
116
114
2
3
5
2
2
4
2
2
4
11
11
13
205
205
205
255
255
255
255
255
255
255
255
255
255
255
255
255
255
255
255
255
255
255
255
255
255
255
255
255
255
255
255
255
255
255
255
255
255
255
255
255
255
255
255
255
255
255
255
255
255
255
255
255
255
255
255
255
255
255
255
255
255
255
255
255
255
255
255
255
255
255
255
255
255
255
255
255
255
255
255
255
255
255
255
255
255
255
255
255
255
255
255
255
255
255
255
255
255
255
255
255
255
255
255
255
255
255
255
255
255
255
255
255
255
255
255
255
255
255
255
255
255
255
255
255
255
255
11
11
15
64
46
9
189
131
3
228
173
10
236
186
11
235
197
12
242
213
38
246
218
63
247
218
23
252
219
17
235
197
3
179
137
12
9
7
4
2
2
4
2
2
4
10
10
12
199
199
199
255
255
255
255
255
255
255
255
255
255
255
255
255
255
255
255
255
255
255
255
255
255
255
255
255
255
255
255
255
255
255
255
255
255
255
255
255
255
255
255
255
255
255
255
255
255
255
255
255
255
255
255
255
255
255
255
255
255
255
255
255
255
255
255
255
255
255
255
255
255
255
255
255
255
255
255
255
255
255
255
255
255
255
255
255
255
255
255
255
255
255
255
255
255
255
255
255
255
255
255
255
255
255
255
255
255
255
255
255
255
255
255
255
255
255
255
255
255
255
255
255
255
255
59
59
62
148
102
8
214
153
8
235
180
11
235
190
11
238
205
17
244
214
55
246
216
23
249
219
16
214
179
12
203
153
9
191
143
11
11
9
4
1
1
3
1
1
3
2
2
4
150
150
151
255
255
255
255
255
255
255
255
255
255
255
255
255
255
255
255
255
255
255
255
255
255
255
255
255
255
255
255
255
255
255
255
255
255
255
255
255
255
255
255
255
255
255
255
255
255
255
255
255
255
255
255
255
255
255
255
255
255
255
255
255
255
255
255
255
255
255
255
255
255
255
255
255
255
255
255
255
255
255
255
255
255
255
255
255
255
255
255
255
255
255
255
255
255
255
255
255
255
255
255
255
255
255
255
255
255
255
255
255
255
255
255
255
255
255
255
255
255
255
255
255
255
255
66
66
67
67
48
8
200
150
9
237
183
12
237
198
16
239
208
23
240
210
21
234
199
13
191
148
11
205
145
8
216
158
11
149
108
17
6
5
4
23
23
25
30
30
32
5
5
6
73
73
74
252
252
252
255
255
255
255
255
255
255
255
255
255
255
255
255
255
255
255
255
255
255
255
255
255
255
255
255
255
255
255
255
255
255
255
255
255
255
255
255
255
255
255
255
255
255
255
255
255
255
255
255
255
255
255
255
255
255
255
255
255
255
255
255
255
255
255
255
255
255
255
255
255
255
255
255
255
255
255
255
255
255
255
255
255
255
255
255
255
255
255
255
255
255
255
255
255
255
255
255
255
255
255
255
255
255
255
255
255
255
255
255
255
255
255
255
255
255
255
255
255
255
255
69
69
70
46
44
43
147
121
67
174
124
0
205
169
17
202
163
14
197
147
10
186
130
9
201
139
3
198
152
43
198
177
133
161
157
152
7
7
9
18
18
19
118
118
118
77
77
77
0
0
2
223
223
223
255
255
255
255
255
255
255
255
255
255
255
255
255
255
255
255
255
255
255
255
255
255
255
255
255
255
255
255
255
255
255
255
255
255
255
255
255
255
255
255
255
255
255
255
255
255
255
255
255
255
255
255
255
255
255
255
255
255
255
255
255
255
255
255
255
255
255
255
255
255
255
255
255
255
255
255
255
255
255
255
255
255
255
255
255
255
255
255
255
255
255
255
255
255
255
255
255
255
255
255
255
255
255
255
255
255
255
255
255
255
255
255
255
255
255
255
255
255
255
255
21
21
23
63
62
63
186
186
187
165
132
69
181
127
3
203
144
9
196
135
7
182
122
3
185
149
73
188
185
178
204
204
205
226
226
225
52
51
51
0
0
0
51
51
52
48
48
49
0
0
2
31
31
33
255
255
255
255
255
255
255
255
255
255
255
255
255
255
255
255
255
255
255
255
255
255
255
255
255
255
255
255
255
255
255
255
255
255
255
255
255
255
255
255
255
255
255
255
255
255
255
255
255
255
255
255
255
255
255
255
255
255
255
255
255
255
255
255
255
255
255
255
255
255
255
255
255
255
255
255
255
255
255
255
255
255
255
255
255
255
255
255
255
255
255
255
255
255
255
255
255
255
255
255
255
255
255
255
255
255
255
255
255
255
255
255
255
255
255
255
255
157
157
158
2
2
4
82
82
83
204
204
204
189
189
188
170
153
123
162
129
74
166
136
83
183
167
140
192
194
197
215
215
216
254
254
252
255
255
255
203
202
202
0
0
0
0
0
0
0
0
1
2
2
4
3
3
5
166
165
165
255
255
255
255
255
255
255
255
255
255
255
255
255
255
255
255
255
255
255
255
255
255
255
255
255
255
255
255
255
255
255
255
255
255
255
255
255
255
255
255
255
255
255
255
255
255
255
255
255
255
255
255
255
255
255
255
255
255
255
255
255
255
255
255
255
255
255
255
255
255
255
255
255
255
255
255
255
255
255
255
255
255
255
255
255
255
255
255
255
255
255
255
255
255
255
255
255
255
255
255
255
255
255
255
255
255
255
255
254
254
254
246
246
245
40
39
38
0
0
1
215
214
213
246
246
245
194
194
193
191
190
190
190
190
190
189
189
189
201
200
200
231
231
231
251
251
249
254
254
252
254
254
252
255
255
255
101
101
101
0
0
0
2
2
4
2
2
4
2
2
4
45
45
46
240
240
240
255
255
255
255
255
255
255
255
255
255
255
255
255
255
255
255
255
255
255
255
255
255
255
255
255
255
255
255
255
255
255
255
255
255
255
255
255
255
255
255
255
255
255
255
255
255
255
255
255
255
255
255
255
255
255
255
255
255
255
255
255
255
255
255
255
255
255
255
255
255
255
255
255
255
255
255
255
255
255
255
255
255
255
255
255
255
255
255
255
255
255
255
255
255
255
255
255
255
255
255
255
255
255
255
255
255
255
255
70
70
71
0
0
0
129
129
129
255
255
255
255
255
253
230
230
230
196
196
195
195
194
193
215
214
214
247
247
246
255
255
252
254
254
252
254
254
252
254
254
252
254
254
252
206
206
205
10
11
12
2
2
4
2
2
4
2
2
4
2
2
4
144
144
145
255
255
255
255
255
255
255
255
255
255
255
255
255
255
255
255
255
255
255
255
255
255
255
255
255
255
255
255
255
255
255
255
255
255
255
255
255
255
255
255
255
255
255
255
255
255
255
255
255
255
255
255
255
255
255
255
255
255
255
255
255
255
255
255
255
255
255
255
255
255
255
255
255
255
255
255
255
255
255
255
255
255
255
255
255
255
255
255
255
255
255
255
255
255
255
255
255
255
255
255
255
255
255
255
255
109
109
110
1
1
3
38
38
39
250
250
248
254
254
252
254
254
252
255
255
253
245
245
244
247
248
246
255
255
253
255
255
253
254
254
252
254
254
252
254
254
252
254
254
252
254
254
252
241
241
239
44
43
44
2
2
4
2
2
4
2
2
4
2
2
4
2
2
4
162
162
163
255
255
255
255
255
255
255
255
255
255
255
255
255
255
255
255
255
255
255
255
255
255
255
255
255
255
255
255
255
255
255
255
255
255
255
255
255
255
255
255
255
255
255
255
255
255
255
255
255
255
255
255
255
255
255
255
255
255
255
255
255
255
255
255
255
255
255
255
255
255
255
255
255
255
255
255
255
255
255
255
255
255
255
255
255
255
255
255
255
255
255
255
255
255
255
255
255
255
255
176
176
177
3
3
5
2
2
4
130
129
130
251
251
250
254
254
252
254
254
252
254
254
252
253
253
251
254
254
252
254
254
252
254
254
252
254
254
252
254
254
252
254
254
252
254
254
252
254
254
252
255
255
254
77
76
76
1
1
3
2
2
4
2
2
4
2
2
4
2
2
4
12
12
14
199
199
199
255
255
255
255
255
255
255
255
255
255
255
255
255
255
255
255
255
255
255
255
255
255
255
255
255
255
255
255
255
255
255
255
255
255
255
255
255
255
255
255
255
255
255
255
255
255
255
255
255
255
255
255
255
255
255
255
255
255
255
255
255
255
255
255
255
255
255
255
255
255
255
255
255
255
255
255
255
255
255
255
255
255
255
255
255
255
255
255
255
255
255
255
255
220
220
220
2
2
4
2
2
4
8
8
10
138
138
138
232
232
232
248
248
247
252
252
251
249
249
248
236
236
236
237
237
237
250
250
248
253
253
251
251
251
250
245
245
244
236
236
235
231
231
230
222
222
222
220
220
220
141
141
140
0
0
0
2
2
4
0
0
2
2
2
4
2
2
4
2
2
4
22
22
24
232
232
232
255
255
255
255
255
255
255
255
255
255
255
255
255
255
255
255
255
255
255
255
255
255
255
255
255
255
255
255
255
255
255
255
255
255
255
255
255
255
255
255
255
255
255
255
255
255
255
255
255
255
255
255
255
255
255
255
255
255
255
255
255
255
255
255
255
255
255
255
255
255
255
255
255
255
255
255
255
255
255
255
255
255
255
255
255
255
255
255
255
255
42
42
44
2
2
4
1
1
3
20
19
20
147
147
147
214
214
215
245
245
244
253
253
251
252
252
250
235
235
235
250
250
248
253
253
251
254
254
252
253
253
251
246
246
244
230
230
229
211
211
211
196
196
197
192
191
191
214
214
214
87
87
88
2
2
3
43
43
43
1
1
2
2
2
4
2
2
4
2
2
4
55
55
57
255
255
255
255
255
255
255
255
255
255
255
255
255
255
255
255
255
255
255
255
255
255
255
255
255
255
255
255
255
255
255
255
255
255
255
255
255
255
255
255
255
255
255
255
255
255
255
255
255
255
255
255
255
255
255
255
255
255
255
255
255
255
255
255
255
255
255
255
255
255
255
255
255
255
255
255
255
255
255
255
255
255
255
255
255
255
255
195
195
195
4
4
6
9
9
10
1
1
3
62
62
61
228
228
227
253
253
252
255
255
252
253
253
251
253
253
251
247
247
247
253
253
251
253
253
251
253
253
251
253
253
251
254
254
252
254
254
252
255
255
253
249
249
247
225
225
225
198
198
198
223
223
222
28
28
30
3
3
5
38
38
38
8
8
9
2
2
4
2
2
4
2
2
4
204
204
204
255
255
255
255
255
255
255
255
255
255
255
255
255
255
255
255
255
255
255
255
255
255
255
255
255
255
255
255
255
255
255
255
255
255
255
255
255
255
255
255
255
255
255
255
255
255
255
255
255
255
255
255
255
255
255
255
255
255
255
255
255
255
255
255
255
255
255
255
255
255
255
255
255
255
255
255
255
255
255
255
255
255
255
255
144
144
145
1
1
2
34
34
34
0
0
0
213
213
211
255
255
254
253
253
251
253
253
251
253
253
251
253
253
251
254
254
252
253
253
251
253
253
251
253
253
251
254
254
252
253
253
251
254
254
252
254
254
252
254
254
252
254
254
252
242
242
241
208
208
208
121
120
121
3
3
5
13
13
14
34
34
34
0
0
2
2
2
4
2
2
4
105
105
106
255
255
255
255
255
255
255
255
255
255
255
255
255
255
255
255
255
255
255
255
255
255
255
255
255
255
255
255
255
255
255
255
255
255
255
255
255
255
255
255
255
255
255
255
255
255
255
255
255
255
255
255
255
255
255
255
255
255
255
255
255
255
255
255
255
255
255
255
255
255
255
255
255
255
255
255
255
255
255
255
255
250
250
250
76
76
76
33
33
33
6
6
8
104
104
105
255
255
255
254
254
252
254
254
252
253
253
251
254
254
252
253
253
251
254
254
252
253
253
251
253
253
251
254
254
252
253
253
251
254
254
252
253
253
251
253
253
251
254
254
252
253
253
251
253
253
251
250
250
248
208
208
207
9
9
11
53
53
53
31
31
31
27
26
27
1
1
3
2
2
4
42
42
44
239
239
239
255
255
255
255
255
255
255
255
255
255
255
255
255
255
255
255
255
255
255
255
255
255
255
255
255
255
255
255
255
255
255
255
255
255
255
255
255
255
255
255
255
255
255
255
255
255
255
255
255
255
255
255
255
255
255
255
255
255
255
255
255
255
255
255
255
255
255
255
255
255
255
255
255
255
255
255
255
255
238
238
238
20
20
22
37
37
37
11
11
13
218
218
216
253
253
251
253
253
251
253
253
251
254
254
252
253
253
251
250
250
249
251
251
249
254
254
252
253
253
251
253
253
251
254
254
252
254
254
252
254
254
252
253
253
251
254
254
252
253
253
251
254
254
252
253
253
251
255
255
255
38
38
38
28
28
28
7
6
7
38
38
38
4
4
6
2
2
4
2
2
4
207
207
207
255
255
255
255
255
255
255
255
255
255
255
255
255
255
255
255
255
255
255
255
255
255
255
255
255
255
255
255
255
255
255
255
255
255
255
255
255
255
255
255
255
255
255
255
255
255
255
255
255
255
255
255
255
255
255
255
255
255
255
255
255
255
255
255
255
255
255
255
255
255
255
255
255
255
255
255
255
255
159
159
160
24
23
24
6
5
7
74
74
73
250
250
248
254
254
252
254
254
252
254
254
252
253
253
251
255
255
253
242
242
241
250
250
249
253
253
251
253
253
251
254
254
252
253
253
251
254
254
252
253
253
251
254
254
252
253
253
251
253
253
251
254
254
252
254
254
252
255
255
255
105
105
105
0
0
0
1
2
4
12
12
13
19
19
20
2
2
4
2
2
4
114
114
115
255
255
255
255
255
255
255
255
255
255
255
255
255
255
255
255
255
255
255
255
255
255
255
255
255
255
255
255
255
255
255
255
255
255
255
255
255
255
255
255
255
255
255
255
255
255
255
255
255
255
255
255
255
255
255
255
255
255
255
255
255
255
255
255
255
255
255
255
255
255
255
255
255
255
255
255
255
255
7
7
9
26
26
27
0
1
3
160
159
159
255
255
255
254
254
252
253
253
251
254
254
252
253
253
251
255
255
253
236
236
236
251
251
249
254
254
252
253
253
251
253
253
251
253
253
251
253
253
251
254
254
252
253
253
251
253
253
251
253
253
251
253
253
251
253
253
251
255
255
255
155
155
155
0
0
0
2
2
4
8
8
10
21
21
22
2
2
4
2
2
4
31
31
33
255
255
255
255
255
255
255
255
255
255
255
255
255
255
255
255
255
255
255
255
255
255
255
255
255
255
255
255
255
255
255
255
255
255
255
255
255
255
255
255
255
255
255
255
255
255
255
255
255
255
255
255
255
255
255
255
255
255
255
255
255
255
255
255
255
255
255
255
255
255
255
255
255
255
255
113
113
114
5
5
6
21
21
21
0
0
1
236
236
234
255
255
253
254
254
252
253
253
251
253
253
251
254
254
252
255
255
253
231
231
231
251
251
250
254
254
252
253
253
251
254
254
252
253
253
251
254
254
252
253
253
251
253
253
251
254
254
252
254
254
252
254
254
252
253
253
251
255
255
255
186
185
184
0
0
0
2
2
4
10
10
12
14
14
16
2
2
4
2
2
4
2
2
4
255
255
255
255
255
255
255
255
255
255
255
255
255
255
255
255
255
255
255
255
255
255
255
255
255
255
255
255
255
255
255
255
255
255
255
255
255
255
255
255
255
255
255
255
255
255
255
255
255
255
255
255
255
255
255
255
255
255
255
255
255
255
255
255
255
255
255
255
255
255
255
255
219
219
219
22
22
24
6
6
8
25
25
25
25
25
25
255
255
255
254
254
252
253
253
251
254
254
252
254
254
252
254
254
252
255
255
254
227
227
227
250
250
249
253
253
251
253
253
251
253
253
251
254
254
252
253
253
251
254
254
252
253
253
251
253
253
251
253
253
251
253
253
251
254
254
252
255
255
255
202
202
201
0
0
0
1
1
3
23
23
24
7
7
8
2
2
4
2
2
4
2
2
4
214
214
214
255
255
255
255
255
255
255
255
255
255
255
255
255
255
255
255
255
255
255
255
255
255
255
255
255
255
255
255
255
255
255
255
255
255
255
255
255
255
255
255
255
255
255
255
255
255
255
255
255
255
255
255
255
255
255
255
255
255
255
255
255
255
255
255
255
255
255
255
255
144
144
146
2
2
4
14
14
15
40
40
40
54
54
55
255
255
255
253
253
251
254
254
252
254
254
252
253
253
251
254
254
252
254
254
253
228
228
227
252
252
251
253
253
251
254
254
252
254
254
252
253
253
251
254
254
252
253
253
251
253
253
251
254
254
252
253
253
251
253
253
251
254
254
252
255
255
254
211
211
210
0
0
0
0
0
1
31
31
31
1
1
3
2
2
4
2
2
4
2
2
4
215
215
215
255
255
255
255
255
255
255
255
255
255
255
255
255
255
255
255
255
255
255
255
255
255
255
255
255
255
255
255
255
255
255
255
255
255
255
255
255
255
255
255
255
255
255
255
255
255
255
255
255
255
255
255
255
255
255
255
255
255
255
255
255
255
255
255
255
255
255
255
255
89
89
90
2
2
4
7
7
9
39
39
40
78
77
78
255
255
255
254
254
252
253
253
251
253
253
251
254
254
252
254
254
252
255
255
253
228
228
228
252
252
250
254
254
252
253
253
251
253
253
251
253
253
251
253
253
251
254
254
252
253
253
251
254
254
252
253
253
251
253
253
251
253
253
251
255
255
255
204
204
203
0
0
0
9
9
10
21
21
22
0
0
2
1
1
3
2
2
4
2
2
4
213
213
213
255
255
255
255
255
255
255
255
255
255
255
255
255
255
255
255
255
255
255
255
255
255
255
255
255
255
255
255
255
255
255
255
255
255
255
255
255
255
255
255
255
255
255
255
255
255
255
255
255
255
255
255
255
255
255
255
255
255
255
255
255
255
255
255
255
255
255
255
255
105
105
105
34
26
5
46
36
6
17
15
11
80
80
81
255
255
255
253
253
251
254
254
252
254
254
252
253
253
251
253
253
251
255
255
253
230
230
229
253
253
251
254
254
252
254
254
252
254
254
252
254
254
252
253
253
251
253
253
251
254
254
252
253
253
251
253
253
251
254
254
252
253
254
254
255
255
255
160
161
162
1
1
3
30
30
30
9
9
10
23
23
23
20
20
21
16
16
18
2
2
4
255
255
255
255
255
255
255
255
255
255
255
255
255
255
255
255
255
255
255
255
255
255
255
255
255
255
255
255
255
255
255
255
255
255
255
255
255
255
255
255
255
255
255
255
255
255
255
255
255
255
255
255
255
255
255
255
255
255
255
255
255
255
255
255
255
255
255
255
255
255
255
255
220
202
161
217
164
12
241
186
12
152
116
7
17
17
21
192
192
190
255
255
255
253
253
252
254
254
252
253
253
251
254
254
252
255
255
253
229
229
228
253
253
251
254
254
252
254
254
252
253
253
251
254
254
252
254
254
252
254
254
252
253
253
251
254
254
252
253
253
251
254
255
255
246
232
195
250
224
147
140
118
61
6
7
10
1
1
3
2
2
4
1
1
3
9
9
11
56
56
56
47
47
54
255
255
255
255
255
255
255
255
255
255
255
255
255
255
255
255
255
255
255
255
255
255
255
255
255
255
255
255
255
255
255
255
255
255
255
255
255
255
255
255
255
255
255
255
255
255
255
255
255
255
255
255
255
255
255
255
255
255
255
255
255
255
255
255
255
255
255
255
255
255
255
255
205
147
11
240
182
14
245
189
12
254
196
12
153
116
9
11
12
18
195
195
194
252
252
251
254
254
252
253
253
251
253
253
251
254
254
253
229
229
228
254
254
252
253
253
251
253
253
251
254
254
252
253
253
251
254
254
252
253
253
251
254
254
252
253
253
251
254
254
252
254
255
255
230
172
12
247
211
11
228
189
13
0
0
6
2
2
4
2
2
4
1
1
3
11
11
12
31
28
21
207
174
40
252
247
220
255
255
255
255
255
255
255
255
255
255
255
255
255
255
255
255
255
255
255
255
255
255
255
255
255
255
255
255
255
255
255
255
255
255
255
255
255
255
255
255
255
255
255
255
255
255
255
255
255
255
255
255
255
255
250
248
242
231
210
162
227
200
137
223
196
139
209
162
56
224
166
12
243
187
12
245
189
12
245
189
12
251
196
12
101
78
6
5
6
9
137
137
135
251
251
249
255
255
253
254
254
252
254
254
252
242
242
241
252
252
250
254
254
252
254
254
252
254
254
252
254
254
252
253
253
251
254
254
252
254
254
252
253
253
251
254
254
252
252
255
255
224
166
16
245
191
11
193
146
10
0
0
5
2
2
4
2
2
4
2
2
4
0
0
4
101
79
7
239
195
12
235
203
77
255
255
255
255
255
255
255
255
255
255
255
255
255
255
255
255
255
255
255
255
255
255
255
255
255
255
255
255
255
255
255
255
255
255
255
255
255
255
255
255
255
255
255
255
255
255
255
255
255
255
255
255
255
255
211
171
83
222
163
12
227
171
12
223
166
10
233
175
13
243
186
13
245
189
12
245
189
12
245
189
12
244
189
12
221
177
11
30
23
5
4
3
5
87
86
86
254
254
252
254
254
252
253
253
251
253
253
251
254
254
252
253
253
251
253
253
251
253
253
251
253
253
251
254
254
252
253
253
251
252
252
251
254
254
252
246
246
245
203
207
217
223
165
19
238
181
11
205
146
8
66
45
6
0
0
4
0
0
4
0
0
4
80
55
6
221
166
10
240
184
12
228
183
55
255
255
255
255
255
255
255
255
255
255
255
255
255
255
255
255
255
255
255
255
255
255
255
255
255
255
255
255
255
255
255
255
255
255
255
255
255
255
255
255
255
255
255
255
255
255
255
255
255
255
255
255
255
255
199
143
16
238
181
12
245
187
12
245
188
13
246
190
12
245
189
12
245
189
12
245
189
12
245
189
12
245
188
12
247
195
12
146
114
9
0
0
4
0
0
0
45
45
46
220
220
219
255
255
253
254
254
252
253
253
251
253
253
251
254
254
252
254
254
252
254
254
252
253
253
251
253
253
251
253
253
251
253
253
251
236
236
234
194
198
207
217
158
19
233
177
9
216
157
8
189
131
8
149
102
8
136
94
7
174
122
8
217
157
9
238
181
11
244
188
12
242
192
40
252
249
241
255
255
255
255
255
255
255
255
255
255
255
255
255
255
255
255
255
255
255
255
255
255
255
255
255
255
255
255
255
255
255
255
255
255
255
255
255
255
255
255
255
255
255
255
255
255
255
255
255
255
255
204
153
38
236
178
12
245
189
12
245
189
12
245
189
12
245
189
12
245
189
12
245
189
12
245
189
12
245
189
12
245
189
12
243
198
12
66
47
6
0
0
4
0
0
2
51
50
51
237
237
236
253
253
251
253
253
251
254
254
252
254
254
252
253
253
251
253
253
251
253
253
251
254
254
252
253
253
251
254
254
252
237
237
236
198
201
209
199
143
19
232
174
9
229
171
10
216
156
9
211
151
9
210
152
9
219
161
9
239
182
12
245
189
12
245
189
12
243
186
13
232
198
98
255
255
255
254
254
254
255
255
255
255
255
255
255
255
255
255
255
255
255
255
255
255
255
255
255
255
255
255
255
255
255
255
255
255
255
255
255
255
255
255
255
255
255
255
255
255
255
255
255
255
255
210
165
61
232
174
12
245
188
12
245
189
12
245
189
12
245
189
12
245
189
12
245
189
12
245
189
12
245
189
12
245
189
12
245
192
12
207
167
12
15
11
5
2
2
4
0
0
2
218
218
217
253
253
251
254
254
252
253
253
251
254
254
252
253
253
251
254
254
252
253
253
251
253
253
251
254
254
252
253
253
251
245
245
243
179
181
189
186
133
9
231
172
10
241
183
12
234
177
10
229
172
9
229
172
9
235
178
11
244
187
12
245
189
12
245
189
12
245
189
12
241
184
13
231
197
96
255
255
255
255
255
255
255
255
255
255
255
255
255
255
255
255
255
255
255
255
255
255
255
255
255
255
255
255
255
255
255
255
255
255
255
255
255
255
255
255
255
255
255
255
255
255
255
255
219
182
102
229
170
13
245
189
12
245
189
12
245
189
12
245
189
12
245
189
12
245
189
12
245
189
12
245
189
12
245
189
12
245
188
12
240
194
12
119
92
7
10
11
14
85
85
86
239
239
237
254
254
252
253
253
251
254
254
252
253
253
251
253
253
251
253
253
251
254
254
252
253
253
251
253
253
251
255
255
255
225
225
224
51
49
48
186
130
8
231
173
10
243
187
12
245
188
12
244
187
12
243
187
12
244
188
12
245
189
12
245
189
12
245
189
12
245
189
12
245
189
12
245
189
12
238
192
50
245
233
200
255
255
255
255
255
255
255
255
255
255
255
255
255
255
255
255
255
255
255
255
255
255
255
255
255
255
255
255
255
255
255
255
255
255
255
255
255
255
255
255
255
255
216
175
86
230
170
11
244
186
12
245
189
12
245
189
12
245
189
12
245
189
12
245
189
12
245
189
12
245
189
12
245
189
12
245
189
12
242
189
12
222
175
2
190
177
147
254
255
255
254
254
252
253
253
251
253
253
251
253
253
251
254
254
252
254
254
252
253
253
251
253
253
251
254
254
252
255
255
255
221
221
220
24
24
27
21
14
4
185
131
8
232
175
11
244
187
12
245
189
12
245
189
12
245
189
12
245
189
12
245
189
12
245
189
12
245
189
12
245
189
12
245
189
12
245
189
12
243
185
13
238
204
112
255
255
255
255
255
255
255
255
255
255
255
255
255
255
255
255
255
255
255
255
255
255
255
255
255
255
255
255
255
255
255
255
255
255
255
255
255
255
255
255
255
255
197
139
15
233
174
12
244
187
12
245
189
12
245
189
12
245
189
12
245
189
12
245
189
12
245
189
12
245
189
12
245
189
12
245
189
12
244
187
12
239
194
12
190
141
9
220
218
213
255
255
255
254
254
252
253
253
251
254
254
252
254
254
252
253
253
251
255
255
254
255
255
255
237
237
235
151
151
150
3
3
4
0
0
2
39
26
5
180
125
8
234
177
11
245
188
12
245
189
12
245
189
12
245
189
12
245
189
12
245
189
12
245
189
12
245
189
12
245
189
12
246
189
12
240
182
13
221
164
21
247
236
210
255
255
255
255
255
255
255
255
255
255
255
255
255
255
255
255
255
255
255
255
255
255
255
255
255
255
255
255
255
255
255
255
255
255
255
255
255
255
255
227
206
162
211
150
9
241
184
12
244
188
12
245
189
12
245
189
12
245
189
12
245
189
12
245
189
12
245
189
12
245
189
12
245
189
12
245
189
12
245
188
12
237
183
11
213
160
9
115
87
34
166
165
164
254
254
252
255
255
255
255
255
255
255
255
255
255
255
255
215
215
214
126
125
125
37
37
38
1
1
3
1
1
3
0
0
4
50
34
5
180
126
9
233
175
12
245
188
12
245
189
12
245
189
12
245
189
12
245
189
12
245
189
12
245
189
12
246
190
12
241
184
13
225
165
11
217
169
66
244
233
212
255
255
255
255
255
255
255
255
255
255
255
255
255
255
255
255
255
255
255
255
255
255
255
255
255
255
255
255
255
255
255
255
255
255
255
255
255
255
255
255
255
255
209
171
91
209
149
9
232
174
11
240
182
14
241
183
13
243
186
12
245
188
12
245
189
12
245
189
12
245
189
12
245
189
12
245
189
12
245
189
12
245
189
12
239
183
12
214
157
9
132
87
6
5
1
0
0
0
1
34
34
36
47
47
48
28
28
29
0
0
2
0
0
0
0
0
0
2
2
4
2
2
4
2
2
4
1
1
4
70
46
5
185
129
8
231
173
10
245
189
12
245
189
12
245
189
12
245
189
12
245
189
12
242
184
13
237
179
15
227
169
14
204
154
44
237
224
201
255
255
255
255
255
255
255
255
255
255
255
255
255
255
255
255
255
255
255
255
255
255
255
255
255
255
255
255
255
255
255
255
255
255
255
255
255
255
255
255
255
255
255
255
255
255
255
255
234
218
186
192
143
42
186
129
8
198
140
8
209
150
10
218
158
10
223
164
11
231
173
11
237
179
12
242
184
13
246
189
12
246
189
12
245
188
12
245
188
12
232
174
11
197
138
8
137
88
6
24
17
4
1
1
3
0
0
1
0
0
1
0
0
2
1
1
3
2
2
4
2
2
4
2
2
4
2
2
4
2
2
4
2
2
4
75
48
5
176
119
7
219
160
10
240
183
13
245
188
12
245
187
12
242
185
12
234
176
12
219
158
10
202
148
27
224
203
159
254
254
254
255
255
255
255
255
255
255
255
255
255
255
255
255
255
255
255
255
255
255
255
255
255
255
255
255
255
255
255
255
255
255
255
255
255
255
255
255
255
255
255
255
255
255
255
255
255
255
255
255
255
255
255
255
255
253
252
251
249
247
242
217
198
165
173
130
52
163
109
6
172
115
7
178
121
7
189
132
8
207
148
9
222
163
12
233
174
11
238
180
13
231
173
12
207
148
8
162
107
5
113
72
5
18
12
4
2
2
4
14
14
16
59
59
61
58
58
60
58
58
60
58
58
60
58
58
60
58
58
60
45
45
48
2
2
7
2
2
4
61
40
6
154
100
5
197
138
8
224
166
10
232
176
12
231
174
11
220
161
9
200
140
8
162
112
18
246
242
234
255
255
255
255
255
255
255
255
255
255
255
255
255
255
255
255
255
255
255
255
255
255
255
255
255
255
255
255
255
255
255
255
255
255
255
255
255
255
255
255
255
255
255
255
255
255
255
255
255
255
255
255
255
255
255
255
255
255
255
255
255
255
255
255
255
255
255
255
255
255
255
255
254
254
254
211
198
176
176
151
110
162
127
67
151
106
28
157
105
7
175
119
8
186
128
8
180
122
7
154
100
5
117
74
4
92
70
33
149
148
147
255
255
255
255
255
255
255
255
255
255
255
255
255
255
255
255
255
255
255
255
255
255
255
255
255
255
255
255
255
255
255
255
255
129
115
92
123
79
5
169
114
6
186
128
8
194
135
7
190
132
7
169
115
7
167
132
67
255
255
255
255
255
255
255
255
255
255
255
255
255
255
255
255
255
255
255
255
255
255
255
255
255
255
255
255
255
255
255
255
255
255
255
255
255
255
255
255
255
255
255
255
255
255
255
255
255
255
255
255
255
255
255
255
255
255
255
255
255
255
255
255
255
255
255
255
255
255
255
255
255
255
255
255
255
255
255
255
255
255
255
255
255
255
255
250
249
249
238
234
229
204
191
171
125
95
42
112
73
5
114
72
5
99
64
5
100
78
42
238
237
235
255
255
255
255
255
255
255
255
255
255
255
255
255
255
255
255
255
255
255
255
255
255
255
255
255
255
255
255
255
255
255
255
255
255
255
255
247
247
246
130
113
82
107
70
5
137
90
5
144
94
6
124
82
7
157
133
94
246
244
242
255
255
255
255
255
255
255
255
255
255
255
255
255
255
255
255
255
255
255
255
255
255
255
255
255
255
255
255
255
255
255
255
255
255
255
255
255
255
255
255
255
255
255
255
255
255
255
255
255
255
255
255
255
255
255
255
255
255
255
255
255
255
255
255
255
255
255
255
255
255
255
255
255
255
255
255
255
255
255
255
255
255
255
255
255
255
255
255
255
255
255
255
255
255
255
255
255
255
255
232
230
226
173
165
150
219
215
210
255
255
255
255
255
255
255
255
255
255
255
255
255
255
255
255
255
255
255
255
255
255
255
255
255
255
255
255
255
255
255
255
255
255
255
255
255
255
255
255
255
255
254
254
254
255
255
255
223
221
217
176
168
153
182
174
160
232
230
228
255
255
255
255
255
255
255
255
255
255
255
255
255
255
255
255
255
255
255
255
255
255
255
255
255
255
255
255
255
255
255
255
255
255
255
255
255
255
255
255
255
255
255
255
255
255
255
255
255
255
255
255
255
255
255
255
255
255
255
255
255
255
255
255
255
255
255
255
255
255
255
255
255
255
255
255
255
255
255
255
255
255
255
255
255
255
255
255
255
255
255
255
255
255
255
255
255
255
255
255
255
255
255
255
255
255
255
255
255
255
255
255
255
255
255
255
255
255
255
255
255
255
255
255
255
255
255
255
255
255
255
255
255
255
255
255
255
255
255
255
255
255
255
255
255
255
255
255
255
255
255
255
255
255
255
255
255
255
255
255
255
255
255
255
255
255
255
255
255
255
255
255
255
255
255
255
255
255
255
255
255
255
255
255
255
255
255
255
255
255
255
255
255
255
255
255
255
255
255
255
255
255
255
255
255
255
255
255
255
255
255
255
255
255
255
255
255
255
255
255
255
255
255
255
255
255
255
255
255
255
255
255
255
255
255
255
255
255
255
255
255
255
255
255
255
255
255
255
255
255
255
255
255
255
255
255
255
255
255
255
255
255
255
255
255
255
255
255
255
255
255
255
255
255
255
255
255
255
255
255
255
255
255
255
255
255
255
255
255
255
255
255
255
255
255
255
255
255
255
255
255
255
255
255
255
255
255
255
255
255
255
255
255
255
255
255
255
255
255
255
255
255
255
255
255
255
255
255
255
255
255
255
255
255
255
255
255
255
255
255
255
255
255
255
255
255
255
255
255
255
255
255
255
255
255
255
255
255
255
255
255
255
255
255
255
255
255
255
255
255
255
255
255
255
255
255
255
255
255
255
255
255
255
255
255
255
255
255
255
255
255
255
255
255
255
255
255
255
255
255
255
255
255
255
255
255
255
255
255
255
255
255
255
255
255
255
255
255
255
255
255
255
255
255
255
255
255
255
255
255
255
255
255
255
255
255
255
255
255
255
255
255
255
255
255
255
255
255
255
255
255
255
255
255
255
255
255
255
255
255
255
255
255
255
255
255
255
255
255
255
255
255
255
255
255
255
255
255
255
255
255
255
255
255
255
255
255
255
255
255
255
255
255
255
255
255
255
255
255
255
255
255
255
255
255
255
255
255
255
255
255
255
255
255
255
255
255
255
255
255
255
255
255
255
255
255
255
255
255
255
255
255
255
255
255
255
255
255
255
255
255
255
255
255
255
255
255
255
255
255
255
255
255
255
255
255
255
255
255
255
255
255
255
255
255
255
255
255
255
255
255
255
255
255
255
255
255
255
255
255
255
255
255
255
255
255
255
255
255
255
255
255
255
255
255
255
255
255
255
255
255
255
255
255
255
255
255
255
255
255
255
255
255
255
255
255
255
255
255
255
255
255
255
255
255
255
255
255
255
255
255
255
255
255
255
255
255
255
255
255
255
255
255
255
255
255
255
255
255
255
255
255
255
255
255
255
255
255
255
255
255
255
255
255
255
255
255
255
255
255
255
255
255
255
255
255
255
255
255
255
255
255
255
255
255
255
255
255
255
255
255
255
255
255
255
255
255
255
255
255
255
255
255
255
255
255
255
255
255
255
255
255
255
255
255
255
255
255
255
255
255
255
255
255
255
255
255
255
255
255
255
255
255
255
255
255
255
255
255
255
255
255
255
255
255
255
255
255
255
255
255
255
255
